<svg width="96" height="18" viewBox="0 0 96 18" fill="none" xmlns="http://www.w3.org/2000/svg">
<path d="M10.25 8.75C10.6642 8.75 11 8.41421 11 8C11 7.58579 10.6642 7.25 10.25 7.25C9.83579 7.25 9.5 7.58579 9.5 8C9.5 8.41421 9.83579 8.75 10.25 8.75ZM10.1365 10.6665C9.95229 10.4608 9.6362 10.4433 9.43043 10.6274C9.22467 10.8116 9.20716 11.1277 9.39132 11.3335C10.0315 12.0487 10.9634 12.5 12 12.5C13.0366 12.5 13.9685 12.0487 14.6087 11.3335C14.7928 11.1277 14.7753 10.8116 14.5696 10.6274C14.3638 10.4433 14.0477 10.4608 13.8635 10.6665C13.4051 11.1788 12.7404 11.5 12 11.5C11.2596 11.5 10.5949 11.1788 10.1365 10.6665ZM14.5 8C14.5 8.41421 14.1642 8.75 13.75 8.75C13.3358 8.75 13 8.41421 13 8C13 7.58579 13.3358 7.25 13.75 7.25C14.1642 7.25 14.5 7.58579 14.5 8ZM18 9C18 5.68629 15.3137 3 12 3C8.68629 3 6 5.68629 6 9C6 12.3137 8.68629 15 12 15C15.3137 15 18 12.3137 18 9ZM7 9C7 6.23858 9.23858 4 12 4C14.7614 4 17 6.23858 17 9C17 11.7614 14.7614 14 12 14C9.23858 14 7 11.7614 7 9Z" fill="#32D032"/>
<path d="M35 8C35 8.41421 34.6642 8.75 34.25 8.75C33.8358 8.75 33.5 8.41421 33.5 8C33.5 7.58579 33.8358 7.25 34.25 7.25C34.6642 7.25 35 7.58579 35 8ZM37.75 8.75C38.1642 8.75 38.5 8.41421 38.5 8C38.5 7.58579 38.1642 7.25 37.75 7.25C37.3358 7.25 37 7.58579 37 8C37 8.41421 37.3358 8.75 37.75 8.75ZM34 10C33.7239 10 33.5 10.2239 33.5 10.5C33.5 10.7761 33.7239 11 34 11H38C38.2761 11 38.5 10.7761 38.5 10.5C38.5 10.2239 38.2761 10 38 10H34ZM36 3C39.3137 3 42 5.68629 42 9C42 12.3137 39.3137 15 36 15C32.6863 15 30 12.3137 30 9C30 5.68629 32.6863 3 36 3ZM36 4C33.2386 4 31 6.23858 31 9C31 11.7614 33.2386 14 36 14C38.7614 14 41 11.7614 41 9C41 6.23858 38.7614 4 36 4Z" fill="#EFBA32"/>
<path d="M66 9C66 5.68629 63.3137 3 60 3C56.6863 3 54 5.68629 54 9C54 12.3137 56.6863 15 60 15C63.3137 15 66 12.3137 66 9ZM55 9C55 6.23858 57.2386 4 60 4C62.7614 4 65 6.23858 65 9C65 11.7614 62.7614 14 60 14C57.2386 14 55 11.7614 55 9ZM59 7.75C59 8.16421 58.6642 8.5 58.25 8.5C57.8358 8.5 57.5 8.16421 57.5 7.75C57.5 7.33579 57.8358 7 58.25 7C58.6642 7 59 7.33579 59 7.75ZM62.5 7.75C62.5 8.16421 62.1642 8.5 61.75 8.5C61.3358 8.5 61 8.16421 61 7.75C61 7.33579 61.3358 7 61.75 7C62.1642 7 62.5 7.33579 62.5 7.75ZM58.1321 11.8224C59.0574 10.7259 60.9426 10.7258 61.8679 11.8224C62.0459 12.0335 62.3614 12.0602 62.5724 11.8821C62.7835 11.7041 62.8102 11.3886 62.6321 11.1776C61.3074 9.60745 58.6926 9.6075 57.3679 11.1776C57.1898 11.3886 57.2165 11.7041 57.4276 11.8821C57.6386 12.0602 57.9541 12.0335 58.1321 11.8224Z" fill="white"/>
<path d="M90 9C90 5.68629 87.3137 3 84 3C80.6863 3 78 5.68629 78 9C78 12.3137 80.6863 15 84 15C87.3137 15 90 12.3137 90 9ZM79 9C79 6.23858 81.2386 4 84 4C86.7614 4 89 6.23858 89 9C89 11.7614 86.7614 14 84 14C81.2386 14 79 11.7614 79 9ZM83 7.75C83 8.16421 82.6642 8.5 82.25 8.5C81.8358 8.5 81.5 8.16421 81.5 7.75C81.5 7.33579 81.8358 7 82.25 7C82.6642 7 83 7.33579 83 7.75ZM86.5 7.75C86.5 8.16421 86.1642 8.5 85.75 8.5C85.3358 8.5 85 8.16421 85 7.75C85 7.33579 85.3358 7 85.75 7C86.1642 7 86.5 7.33579 86.5 7.75Z" fill="white"/>
<circle cx="84" cy="10.9013" r="1.5" fill="white"/>
</svg>
