<svg width="360" height="16" viewBox="0 0 360 16" fill="none" xmlns="http://www.w3.org/2000/svg">
<path d="M304.283 3.54595C304.577 2.95136 305.425 2.95136 305.718 3.54595L306.83 5.79856L309.316 6.15979C309.972 6.25513 310.234 7.06151 309.759 7.52434L307.96 9.27775L308.385 11.7536C308.497 12.4071 307.811 12.9055 307.224 12.597L305.001 11.428L302.777 12.597C302.19 12.9055 301.505 12.4071 301.617 11.7536L302.041 9.27775L300.242 7.52434C299.768 7.06151 300.03 6.25513 300.686 6.15979L303.172 5.79856L304.283 3.54595Z" fill="#F7630C"/>
<path d="M316.283 3.54595C316.577 2.95136 317.425 2.95136 317.718 3.54595L318.83 5.79856L321.316 6.15979C321.972 6.25513 322.234 7.06151 321.759 7.52434L319.96 9.27775L320.385 11.7536C320.497 12.4071 319.811 12.9055 319.224 12.597L317.001 11.428L314.777 12.597C314.19 12.9055 313.505 12.4071 313.617 11.7536L314.041 9.27775L312.242 7.52434C311.768 7.06151 312.03 6.25513 312.686 6.15979L315.172 5.79856L316.283 3.54595Z" fill="#F7630C"/>
<path d="M328.283 3.54595C328.577 2.95136 329.425 2.95136 329.718 3.54595L330.83 5.79856L333.316 6.15979C333.972 6.25513 334.234 7.06151 333.759 7.52434L331.96 9.27775L332.385 11.7536C332.497 12.4071 331.811 12.9055 331.224 12.597L329.001 11.428L326.777 12.597C326.19 12.9055 325.505 12.4071 325.617 11.7536L326.041 9.27775L324.242 7.52434C323.768 7.06151 324.03 6.25513 324.686 6.15979L327.172 5.79856L328.283 3.54595Z" fill="#F7630C"/>
<path d="M340.283 3.54595C340.577 2.95136 341.425 2.95136 341.718 3.54595L342.83 5.79856L345.316 6.15979C345.972 6.25513 346.234 7.06151 345.759 7.52434L343.96 9.27775L344.385 11.7536C344.497 12.4071 343.811 12.9055 343.224 12.597L341.001 11.428L338.777 12.597C338.19 12.9055 337.505 12.4071 337.617 11.7536L338.041 9.27775L336.242 7.52434C335.768 7.06151 336.03 6.25513 336.686 6.15979L339.172 5.79856L340.283 3.54595Z" fill="#F7630C"/>
<path d="M352.283 3.54595C352.577 2.95136 353.425 2.95136 353.718 3.54595L354.83 5.79856L357.316 6.15979C357.972 6.25513 358.234 7.06151 357.759 7.52434L355.96 9.27775L356.385 11.7536C356.497 12.4071 355.811 12.9055 355.224 12.597L353.001 11.428L350.777 12.597C350.19 12.9055 349.505 12.4071 349.617 11.7536L350.041 9.27775L348.242 7.52434C347.768 7.06151 348.03 6.25513 348.686 6.15979L351.172 5.79856L352.283 3.54595Z" fill="#F7630C"/>
<path d="M245.283 3.54595C245.577 2.95136 246.425 2.95136 246.718 3.54595L247.83 5.79856L250.316 6.15979C250.972 6.25513 251.234 7.06151 250.759 7.52434L248.96 9.27775L249.385 11.7536C249.497 12.4071 248.811 12.9055 248.224 12.597L246.001 11.428L243.777 12.597C243.19 12.9055 242.505 12.4071 242.617 11.7536L243.041 9.27775L241.242 7.52434C240.768 7.06151 241.03 6.25513 241.686 6.15979L244.172 5.79856L245.283 3.54595Z" fill="#F7630C"/>
<path d="M257.283 3.54595C257.577 2.95136 258.425 2.95136 258.718 3.54595L259.83 5.79856L262.316 6.15979C262.972 6.25513 263.234 7.06151 262.759 7.52434L260.96 9.27775L261.385 11.7536C261.497 12.4071 260.811 12.9055 260.224 12.597L258.001 11.428L255.777 12.597C255.19 12.9055 254.505 12.4071 254.617 11.7536L255.041 9.27775L253.242 7.52434C252.768 7.06151 253.03 6.25513 253.686 6.15979L256.172 5.79856L257.283 3.54595Z" fill="#F7630C"/>
<path d="M269.283 3.54595C269.577 2.95136 270.425 2.95136 270.718 3.54595L271.83 5.79856L274.316 6.15979C274.972 6.25513 275.234 7.06151 274.759 7.52434L272.96 9.27775L273.385 11.7536C273.497 12.4071 272.811 12.9055 272.224 12.597L270.001 11.428L267.777 12.597C267.19 12.9055 266.505 12.4071 266.617 11.7536L267.041 9.27775L265.242 7.52434C264.768 7.06151 265.03 6.25513 265.686 6.15979L268.172 5.79856L269.283 3.54595Z" fill="#F7630C"/>
<path d="M281.283 3.54595C281.577 2.95136 282.425 2.95136 282.718 3.54595L283.83 5.79856L286.316 6.15979C286.972 6.25513 287.234 7.06151 286.759 7.52434L284.96 9.27775L285.385 11.7536C285.497 12.4071 284.811 12.9055 284.224 12.597L282.001 11.428L279.777 12.597C279.19 12.9055 278.505 12.4071 278.617 11.7536L279.041 9.27775L277.242 7.52434C276.768 7.06151 277.03 6.25513 277.686 6.15979L280.172 5.79856L281.283 3.54595Z" fill="#F7630C"/>
<path d="M185.283 3.54595C185.577 2.95136 186.425 2.95136 186.718 3.54595L187.83 5.79856L190.316 6.15979C190.972 6.25513 191.234 7.06151 190.759 7.52434L188.96 9.27775L189.385 11.7536C189.497 12.4071 188.811 12.9055 188.224 12.597L186.001 11.428L183.777 12.597C183.19 12.9055 182.505 12.4071 182.617 11.7536L183.041 9.27775L181.242 7.52434C180.768 7.06151 181.03 6.25513 181.686 6.15979L184.172 5.79856L185.283 3.54595Z" fill="#F7630C"/>
<path d="M197.283 3.54595C197.577 2.95136 198.425 2.95136 198.718 3.54595L199.83 5.79856L202.316 6.15979C202.972 6.25513 203.234 7.06151 202.759 7.52434L200.96 9.27775L201.385 11.7536C201.497 12.4071 200.811 12.9055 200.224 12.597L198.001 11.428L195.777 12.597C195.19 12.9055 194.505 12.4071 194.617 11.7536L195.041 9.27775L193.242 7.52434C192.768 7.06151 193.03 6.25513 193.686 6.15979L196.172 5.79856L197.283 3.54595Z" fill="#F7630C"/>
<path d="M209.283 3.54595C209.577 2.95136 210.425 2.95136 210.718 3.54595L211.83 5.79856L214.316 6.15979C214.972 6.25513 215.234 7.06151 214.759 7.52434L212.96 9.27775L213.385 11.7536C213.497 12.4071 212.811 12.9055 212.224 12.597L210.001 11.428L207.777 12.597C207.19 12.9055 206.505 12.4071 206.617 11.7536L207.041 9.27775L205.242 7.52434C204.768 7.06151 205.03 6.25513 205.686 6.15979L208.172 5.79856L209.283 3.54595Z" fill="#F7630C"/>
<path d="M66.2835 3.54595C66.5769 2.95136 67.4248 2.95136 67.7182 3.54595L68.83 5.79856L71.3159 6.15979C71.9721 6.25513 72.2341 7.06151 71.7592 7.52434L69.9604 9.27775L70.3851 11.7536C70.4972 12.4071 69.8112 12.9055 69.2243 12.597L67.0009 11.428L64.7774 12.597C64.1905 12.9055 63.5045 12.4071 63.6166 11.7536L64.0413 9.27775L62.2425 7.52434C61.7677 7.06151 62.0297 6.25513 62.6858 6.15979L65.1717 5.79856L66.2835 3.54595Z" fill="#F7630C"/>
<path d="M125.283 3.54595C125.577 2.95136 126.425 2.95136 126.718 3.54595L127.83 5.79856L130.316 6.15979C130.972 6.25513 131.234 7.06151 130.759 7.52434L128.96 9.27775L129.385 11.7536C129.497 12.4071 128.811 12.9055 128.224 12.597L126.001 11.428L123.777 12.597C123.19 12.9055 122.505 12.4071 122.617 11.7536L123.041 9.27775L121.242 7.52434C120.768 7.06151 121.03 6.25513 121.686 6.15979L124.172 5.79856L125.283 3.54595Z" fill="#F7630C"/>
<path d="M137.283 3.54595C137.577 2.95136 138.425 2.95136 138.718 3.54595L139.83 5.79856L142.316 6.15979C142.972 6.25513 143.234 7.06151 142.759 7.52434L140.96 9.27775L141.385 11.7536C141.497 12.4071 140.811 12.9055 140.224 12.597L138.001 11.428L135.777 12.597C135.19 12.9055 134.505 12.4071 134.617 11.7536L135.041 9.27775L133.242 7.52434C132.768 7.06151 133.03 6.25513 133.686 6.15979L136.172 5.79856L137.283 3.54595Z" fill="#F7630C"/>
<path d="M5.28347 3.54595C5.57692 2.95136 6.42479 2.95136 6.71825 3.54595L7.82997 5.79856L10.3159 6.15979C10.9721 6.25513 11.2341 7.06151 10.7592 7.52434L8.96043 9.27775L9.38507 11.7536C9.49716 12.4071 8.81122 12.9055 8.22431 12.597L6.00086 11.428L3.7774 12.597C3.19049 12.9055 2.50455 12.4071 2.61664 11.7536L3.04128 9.27775L1.24246 7.52434C0.767651 7.06151 1.02966 6.25513 1.68584 6.15979L4.17174 5.79856L5.28347 3.54595ZM6.00086 4.35192L5.02194 6.33542C4.90541 6.57153 4.68016 6.73519 4.41959 6.77305L2.23067 7.09112L3.81459 8.63506C4.00313 8.81885 4.08917 9.08365 4.04466 9.34316L3.67075 11.5232L5.62858 10.4939C5.86164 10.3714 6.14007 10.3714 6.37313 10.4939L8.33096 11.5232L7.95705 9.34317C7.91254 9.08365 7.99858 8.81885 8.18713 8.63506L9.77105 7.09112L7.58212 6.77305C7.32156 6.73519 7.0963 6.57153 6.97977 6.33542L6.00086 4.35192Z" fill="white"/>
<path d="M17.2835 3.54595C17.5769 2.95136 18.4248 2.95136 18.7182 3.54595L19.83 5.79856L22.3159 6.15979C22.9721 6.25513 23.2341 7.06151 22.7592 7.52434L20.9604 9.27775L21.3851 11.7536C21.4972 12.4071 20.8112 12.9055 20.2243 12.597L18.0009 11.428L15.7774 12.597C15.1905 12.9055 14.5045 12.4071 14.6166 11.7536L15.0413 9.27775L13.2425 7.52434C12.7677 7.06151 13.0297 6.25513 13.6858 6.15979L16.1717 5.79856L17.2835 3.54595ZM18.0009 4.35192L17.0219 6.33542C16.9054 6.57153 16.6802 6.73519 16.4196 6.77305L14.2307 7.09112L15.8146 8.63506C16.0031 8.81885 16.0892 9.08365 16.0447 9.34316L15.6708 11.5232L17.6286 10.4939C17.8616 10.3714 18.1401 10.3714 18.3731 10.4939L20.331 11.5232L19.957 9.34317C19.9125 9.08365 19.9986 8.81885 20.1871 8.63506L21.771 7.09112L19.5821 6.77305C19.3216 6.73519 19.0963 6.57153 18.9798 6.33542L18.0009 4.35192Z" fill="white"/>
<path d="M29.2835 3.54595C29.5769 2.95136 30.4248 2.95136 30.7182 3.54595L31.83 5.79856L34.3159 6.15979C34.9721 6.25513 35.2341 7.06151 34.7592 7.52434L32.9604 9.27775L33.3851 11.7536C33.4972 12.4071 32.8112 12.9055 32.2243 12.597L30.0009 11.428L27.7774 12.597C27.1905 12.9055 26.5045 12.4071 26.6166 11.7536L27.0413 9.27775L25.2425 7.52434C24.7677 7.06151 25.0297 6.25513 25.6858 6.15979L28.1717 5.79856L29.2835 3.54595ZM30.0009 4.35192L29.0219 6.33542C28.9054 6.57153 28.6802 6.73519 28.4196 6.77305L26.2307 7.09112L27.8146 8.63506C28.0031 8.81885 28.0892 9.08365 28.0447 9.34316L27.6708 11.5232L29.6286 10.4939C29.8616 10.3714 30.1401 10.3714 30.3731 10.4939L32.331 11.5232L31.957 9.34317C31.9125 9.08365 31.9986 8.81885 32.1871 8.63506L33.771 7.09112L31.5821 6.77305C31.3216 6.73519 31.0963 6.57153 30.9798 6.33542L30.0009 4.35192Z" fill="white"/>
</svg>
