<svg width="48" height="16" viewBox="0 0 48 16" fill="none" xmlns="http://www.w3.org/2000/svg">
<g clip-path="url(#clip0_48_3656)">
<path d="M16.3333 8.00001C16.3333 4.31811 19.3181 1.33334 23 1.33334C26.6819 1.33334 29.6667 4.31811 29.6667 8.00001C29.6667 11.6819 26.6819 14.6667 23 14.6667C19.3181 14.6667 16.3333 11.6819 16.3333 8.00001ZM22.2371 5.43666C21.6817 5.12904 21 5.53073 21 6.16565V9.8344C21 10.4693 21.6817 10.871 22.2371 10.5634L26.0756 8.43742C26.2346 8.34933 26.3333 8.18184 26.3333 8.00002C26.3333 7.81821 26.2346 7.65072 26.0756 7.56263L22.2371 5.43666Z" fill="#F7630C"/>
</g>
<g clip-path="url(#clip1_48_3656)">
<path d="M39 14.6667C42.6819 14.6667 45.6667 11.6819 45.6667 8.00001C45.6667 4.31811 42.6819 1.33334 39 1.33334C35.3181 1.33334 32.3333 4.31811 32.3333 8.00001C32.3333 11.6819 35.3181 14.6667 39 14.6667ZM37.3333 5.33334H40.6667C41.219 5.33334 41.6667 5.78106 41.6667 6.33334V9.66668C41.6667 10.219 41.219 10.6667 40.6667 10.6667H37.3333C36.7811 10.6667 36.3333 10.219 36.3333 9.66668V6.33334C36.3333 5.78106 36.7811 5.33334 37.3333 5.33334Z" fill="#F7630C"/>
</g>
<path d="M3.5 3C2.11929 3 1 4.11929 1 5.5V10.5C1 11.8807 2.11929 13 3.5 13H12.5C13.8807 13 15 11.8807 15 10.5V5.5C15 4.11929 13.8807 3 12.5 3H3.5ZM2 5.5C2 4.67157 2.67157 4 3.5 4H12.5C13.3284 4 14 4.67157 14 5.5V10.5C14 11.3284 13.3284 12 12.5 12H3.5C2.67157 12 2 11.3284 2 10.5V5.5ZM12.5 5C12.2239 5 12 5.22386 12 5.5V6.5C12 6.77614 12.2239 7 12.5 7C12.7761 7 13 6.77614 13 6.5V5.5C13 5.22386 12.7761 5 12.5 5ZM12 9.5C12 9.22386 12.2239 9 12.5 9C12.7761 9 13 9.22386 13 9.5V10.5C13 10.7761 12.7761 11 12.5 11C12.2239 11 12 10.7761 12 10.5V9.5ZM3.5 5C3.22386 5 3 5.22386 3 5.5V6.5C3 6.77614 3.22386 7 3.5 7C3.77614 7 4 6.77614 4 6.5V5.5C4 5.22386 3.77614 5 3.5 5ZM3 9.5C3 9.22386 3.22386 9 3.5 9C3.77614 9 4 9.22386 4 9.5V10.5C4 10.7761 3.77614 11 3.5 11C3.22386 11 3 10.7761 3 10.5V9.5ZM7 6.50082C7 6.11469 7.34566 5.87425 7.62067 6.06908L9.82536 7.63107C10.0582 7.79604 10.0582 8.20398 9.82536 8.36895L7.62067 9.93092C7.34566 10.1258 7 9.88531 7 9.49918V6.50082Z" fill="#F7630C"/>
<defs>
<clipPath id="clip0_48_3656">
<rect width="16" height="16" fill="white" transform="translate(15)"/>
</clipPath>
<clipPath id="clip1_48_3656">
<rect width="16" height="16" fill="white" transform="translate(31)"/>
</clipPath>
</defs>
</svg>
