<svg width="48" height="16" viewBox="0 0 48 16" fill="none" xmlns="http://www.w3.org/2000/svg">
<g clip-path="url(#clip0_48_3296)">
<path d="M3.5 13H12.5C12.7761 13 13 13.2239 13 13.5C13 13.7455 12.8231 13.9496 12.5899 13.9919L12.5 14H3.5C3.22386 14 3 13.7761 3 13.5C3 13.2545 3.17688 13.0504 3.41012 13.0081L3.5 13H12.5H3.5ZM7.91012 1.00806L8 1C8.24546 1 8.44961 1.17688 8.49194 1.41012L8.5 1.5V10.292L11.182 7.61091C11.3555 7.43735 11.625 7.41806 11.8198 7.55306L11.8891 7.61091C12.0627 7.78448 12.0819 8.0539 11.9469 8.24877L11.8891 8.31802L8.35355 11.8536C8.17999 12.0271 7.91056 12.0464 7.71569 11.9114L7.64645 11.8536L4.11091 8.31802C3.91565 8.12276 3.91565 7.80617 4.11091 7.61091C4.28448 7.43735 4.5539 7.41806 4.74877 7.55306L4.81802 7.61091L7.5 10.292V1.5C7.5 1.25454 7.67688 1.05039 7.91012 1.00806L8 1L7.91012 1.00806Z" fill="white"/>
<path d="M19.5 2C19.2239 2 19 2.22386 19 2.5C19 2.77614 19.2239 3 19.5 3H28.5C28.7761 3 29 2.77614 29 2.5C29 2.22386 28.7761 2 28.5 2H19.5ZM24.3536 4.14645C24.1583 3.95118 23.8417 3.95118 23.6464 4.14645L20.1464 7.64645C19.9512 7.84171 19.9512 8.15829 20.1464 8.35355C20.3417 8.54882 20.6583 8.54882 20.8536 8.35355L23.5 5.70711V13.5C23.5 13.7761 23.7239 14 24 14C24.2761 14 24.5 13.7761 24.5 13.5V5.70711L27.1464 8.35355C27.3417 8.54882 27.6583 8.54882 27.8536 8.35355C28.0488 8.15829 28.0488 7.84171 27.8536 7.64645L24.3536 4.14645Z" fill="white"/>
<path d="M35.5 2C35.2239 2 35 2.22386 35 2.5C35 2.77614 35.2239 3 35.5 3H44.5C44.7761 3 45 2.77614 45 2.5C45 2.22386 44.7761 2 44.5 2H35.5ZM40.3536 4.14645C40.1583 3.95118 39.8417 3.95118 39.6464 4.14645L36.1464 7.64645C35.9512 7.84171 35.9512 8.15829 36.1464 8.35355C36.3417 8.54882 36.6583 8.54882 36.8536 8.35355L39.5 5.70711V13.5C39.5 13.7761 39.7239 14 40 14C40.2761 14 40.5 13.7761 40.5 13.5V5.70711L43.1464 8.35355C43.3417 8.54882 43.6583 8.54882 43.8536 8.35355C44.0488 8.15829 44.0488 7.84171 43.8536 7.64645L40.3536 4.14645Z" fill="white"/>
</g>
<defs>
<clipPath id="clip0_48_3296">
<rect width="48" height="16" fill="white"/>
</clipPath>
</defs>
</svg>
