<svg width="696" height="24" viewBox="0 0 696 24" fill="none" xmlns="http://www.w3.org/2000/svg">
<g clip-path="url(#clip0_48_3183)">
<g clip-path="url(#clip1_48_3183)">
<path d="M18.5 20C18.5 20.275 18.276 20.5 18 20.5H12.2678C11.9806 21.051 11.6168 21.5557 11.1904 22H18C19.104 22 20 21.104 20 20V9.828C20 9.298 19.789 8.789 19.414 8.414L13.585 2.586C13.57 2.57105 13.5531 2.55808 13.5363 2.5452C13.5238 2.53567 13.5115 2.5262 13.5 2.516C13.429 2.452 13.359 2.389 13.281 2.336C13.2557 2.31894 13.2281 2.30548 13.2005 2.29207C13.1845 2.28426 13.1685 2.27647 13.153 2.268C13.1363 2.25859 13.1197 2.24897 13.103 2.23933C13.0488 2.20797 12.9944 2.17648 12.937 2.152C12.74 2.07 12.528 2.029 12.313 2.014C12.2933 2.01274 12.2738 2.01008 12.2542 2.00741C12.2271 2.00371 12.1999 2 12.172 2H6C4.896 2 4 2.896 4 4V11.4982C4.47417 11.3004 4.97679 11.1572 5.5 11.0764V4C5.5 3.725 5.724 3.5 6 3.5H12V8C12 9.104 12.896 10 14 10H18.5V20ZM13.5 4.621L17.378 8.5H14C13.724 8.5 13.5 8.275 13.5 8V4.621ZM12 17.5C12 14.4624 9.53757 12 6.5 12C3.46243 12 1 14.4624 1 17.5C1 20.5376 3.46243 23 6.5 23C9.53757 23 12 20.5376 12 17.5ZM7.00065 18L7.00111 20.5035C7.00111 20.7797 6.77725 21.0035 6.50111 21.0035C6.22497 21.0035 6.00111 20.7797 6.00111 20.5035L6.00065 18H3.4956C3.21973 18 2.99609 17.7762 2.99609 17.5C2.99609 17.2239 3.21973 17 3.4956 17H6.00046L6 14.4993C6 14.2231 6.22386 13.9993 6.5 13.9993C6.77614 13.9993 7 14.2231 7 14.4993L7.00046 17H9.49659C9.77246 17 9.99609 17.2239 9.99609 17.5C9.99609 17.7762 9.77246 18 9.49659 18H7.00065Z" fill="white"/>
<path d="M1 17.5C1 14.4624 3.46243 12 6.5 12C9.53757 12 12 14.4624 12 17.5C12 20.5376 9.53757 23 6.5 23C3.46243 23 1 20.5376 1 17.5ZM5.99935 18L5.99889 20.5035C5.99889 20.7797 6.22275 21.0035 6.49889 21.0035C6.77503 21.0035 6.99889 20.7797 6.99889 20.5035L6.99935 18H9.5044C9.78027 18 10.0039 17.7762 10.0039 17.5C10.0039 17.2239 9.78027 17 9.5044 17H6.99954L7 14.4993C7 14.2231 6.77614 13.9993 6.5 13.9993C6.22386 13.9993 6 14.2231 6 14.4993L5.99954 17H3.50341C3.22754 17 3.00391 17.2239 3.00391 17.5C3.00391 17.7762 3.22754 18 3.50341 18H5.99935Z" fill="#F7630C"/>
</g>
<g clip-path="url(#clip2_48_3183)">
<path d="M26 12C26 6.47715 30.4772 2 36 2C41.5228 2 46 6.47715 46 12C46 17.5228 41.5228 22 36 22C30.4772 22 26 17.5228 26 12ZM34.8556 8.15498C34.0225 7.69354 33 8.29608 33 9.24847V14.7516C33 15.704 34.0225 16.3065 34.8556 15.8451L40.6134 12.6561C40.852 12.524 41 12.2727 41 12C41 11.7273 40.852 11.4761 40.6134 11.3439L34.8556 8.15498Z" fill="#F7630C"/>
</g>
<g clip-path="url(#clip3_48_3183)">
<path d="M60 2C54.4772 2 50 6.47715 50 12C50 17.5228 54.4772 22 60 22C65.5228 22 70 17.5228 70 12C70 6.47715 65.5228 2 60 2ZM58.5 8.25V15.75C58.5 16.1642 58.1642 16.5 57.75 16.5C57.3358 16.5 57 16.1642 57 15.75V8.25C57 7.83579 57.3358 7.5 57.75 7.5C58.1642 7.5 58.5 7.83579 58.5 8.25ZM63 8.25V15.75C63 16.1642 62.6642 16.5 62.25 16.5C61.8358 16.5 61.5 16.1642 61.5 15.75V8.25C61.5 7.83579 61.8358 7.5 62.25 7.5C62.6642 7.5 63 7.83579 63 8.25Z" fill="#F7630C"/>
</g>
<g clip-path="url(#clip4_48_3183)">
<path d="M84 22C89.5228 22 94 17.5228 94 12C94 6.47715 89.5228 2 84 2C78.4772 2 74 6.47715 74 12C74 17.5228 78.4772 22 84 22ZM81.5 8H86.5C87.3284 8 88 8.67157 88 9.5V14.5C88 15.3284 87.3284 16 86.5 16H81.5C80.6716 16 80 15.3284 80 14.5V9.5C80 8.67157 80.6716 8 81.5 8Z" fill="#F7630C"/>
</g>
<g clip-path="url(#clip5_48_3183)">
<path d="M102.747 2.99997L113.254 3.00166C115.257 3.00256 116.894 4.57471 116.998 6.553L117.003 6.75214V11.2447C117.003 11.6589 116.667 11.9947 116.253 11.9947C115.874 11.9947 115.56 11.7125 115.51 11.3465L115.503 11.2447V6.75236C115.503 5.56147 114.578 4.58658 113.407 4.50692L113.253 4.50166L102.747 4.49997C101.569 4.49907 100.602 5.40397 100.505 6.55684L100.497 6.71553L100.499 17.2517C100.5 18.4426 101.425 19.4173 102.596 19.4968L102.75 19.5021H107.246C107.661 19.5021 107.996 19.8379 107.996 20.2521C107.996 20.6318 107.714 20.9456 107.348 20.9952L107.246 21.0021H102.75C100.746 21.0014 99.1092 19.4296 99.0048 17.4513L98.9995 17.2522L98.9976 6.7526L99.0018 6.54918C99.1022 4.63643 100.636 3.10369 102.548 3.00502L102.747 2.99997ZM105.75 8.99955H112.254C112.669 8.99955 113.004 9.33533 113.004 9.74955C113.004 10.1292 112.722 10.443 112.356 10.4927L112.254 10.4995L107.56 10.499L114.784 17.7195C115.05 17.9857 115.074 18.4024 114.857 18.6961L114.784 18.7802C114.518 19.0465 114.101 19.0708 113.807 18.853L113.723 18.7804L106.5 11.56L106.5 16.2511C106.5 16.6308 106.218 16.9446 105.852 16.9942L105.75 17.0011C105.371 17.0011 105.057 16.7189 105.007 16.3528L105 16.2511L105.001 9.73435C105 9.70888 105.002 9.68352 105.005 9.65829L105.026 9.54988L105.061 9.45357L105.066 9.44205C105.101 9.36096 105.153 9.2855 105.219 9.21933L105.263 9.17862L105.344 9.11807L105.404 9.08377L105.499 9.0424L105.566 9.02247L105.628 9.0094L105.721 9.00008L112.254 8.99955H105.75Z" fill="white"/>
<path d="M105.75 8.99954H112.254C112.669 8.99954 113.004 9.33533 113.004 9.74954C113.004 10.1292 112.722 10.443 112.356 10.4927L112.254 10.4995L107.56 10.499L114.784 17.7195C115.05 17.9857 115.074 18.4024 114.857 18.6961L114.784 18.7802C114.518 19.0465 114.101 19.0708 113.807 18.853L113.723 18.7804L106.5 11.56L106.5 16.2511C106.5 16.6308 106.218 16.9446 105.852 16.9942L105.75 17.0011C105.371 17.0011 105.057 16.7189 105.007 16.3528L105 16.2511L105.001 9.73435C105 9.70888 105.002 9.68352 105.005 9.65829L105.026 9.54987L105.061 9.45356L105.066 9.44205C105.101 9.36095 105.153 9.2855 105.219 9.21933L105.263 9.17861L105.344 9.11807L105.404 9.08377L105.499 9.0424L105.566 9.02247L105.628 9.0094L105.721 9.00007L112.254 8.99954H105.75Z" fill="#F7630C"/>
</g>
<g clip-path="url(#clip6_48_3183)">
<path d="M132 1.99896C137.524 1.99896 142.002 6.47681 142.002 12.0005C142.002 17.5242 137.524 22.0021 132 22.0021C126.476 22.0021 121.998 17.5242 121.998 12.0005C121.998 6.47681 126.476 1.99896 132 1.99896ZM132 3.49896C127.305 3.49896 123.498 7.30524 123.498 12.0005C123.498 16.6958 127.305 20.5021 132 20.5021C136.695 20.5021 140.502 16.6958 140.502 12.0005C140.502 7.30524 136.695 3.49896 132 3.49896ZM131.996 10.4995C132.376 10.4993 132.69 10.7812 132.74 11.1473L132.747 11.2491L132.75 16.7506C132.751 17.1649 132.415 17.5009 132.001 17.5011C131.621 17.5014 131.307 17.2194 131.257 16.8534L131.25 16.7516L131.247 11.25C131.247 10.8358 131.582 10.4998 131.996 10.4995ZM132 7.00178C132.552 7.00178 132.999 7.4489 132.999 8.00044C132.999 8.55199 132.552 8.99911 132 8.99911C131.449 8.99911 131.002 8.55199 131.002 8.00044C131.002 7.4489 131.449 7.00178 132 7.00178Z" fill="white"/>
<path d="M131.996 10.4995C132.376 10.4993 132.69 10.7812 132.74 11.1473L132.747 11.249L132.75 16.7506C132.751 17.1649 132.415 17.5009 132.001 17.5011C131.621 17.5014 131.307 17.2194 131.257 16.8534L131.25 16.7516L131.247 11.25C131.247 10.8358 131.582 10.4998 131.996 10.4995ZM132 7.00177C132.552 7.00177 132.999 7.44889 132.999 8.00043C132.999 8.55198 132.552 8.99909 132 8.99909C131.449 8.99909 131.002 8.55198 131.002 8.00043C131.002 7.44889 131.449 7.00177 132 7.00177Z" fill="#F7630C"/>
</g>
<g clip-path="url(#clip7_48_3183)">
<path d="M154 5H158C158 3.89543 157.105 3 156 3C154.895 3 154 3.89543 154 5ZM152.5 5C152.5 3.067 154.067 1.5 156 1.5C157.933 1.5 159.5 3.067 159.5 5H165.25C165.664 5 166 5.33579 166 5.75C166 6.16421 165.664 6.5 165.25 6.5H163.931L162.759 18.6112C162.573 20.5334 160.957 22 159.026 22H152.974C151.043 22 149.427 20.5334 149.241 18.6112L148.069 6.5H146.75C146.336 6.5 146 6.16421 146 5.75C146 5.33579 146.336 5 146.75 5H152.5ZM154.5 9.75C154.5 9.33579 154.164 9 153.75 9C153.336 9 153 9.33579 153 9.75V17.25C153 17.6642 153.336 18 153.75 18C154.164 18 154.5 17.6642 154.5 17.25V9.75ZM158.25 9C158.664 9 159 9.33579 159 9.75V17.25C159 17.6642 158.664 18 158.25 18C157.836 18 157.5 17.6642 157.5 17.25V9.75C157.5 9.33579 157.836 9 158.25 9ZM150.734 18.4667C150.846 19.62 151.815 20.5 152.974 20.5H159.026C160.185 20.5 161.154 19.62 161.266 18.4667L162.424 6.5H149.576L150.734 18.4667Z" fill="white"/>
</g>
<g clip-path="url(#clip8_48_3183)">
<path d="M178.788 3.10254C179.283 2.09916 180.714 2.09916 181.209 3.10254L183.567 7.88026L188.839 8.64641C189.947 8.80731 190.389 10.1681 189.588 10.9491L185.772 14.668L186.673 19.9193C186.862 21.0221 185.705 21.8631 184.714 21.3424L179.998 18.8631L175.283 21.3424C174.292 21.8631 173.135 21.0221 173.324 19.9193L174.224 14.668L170.409 10.9491C169.608 10.1681 170.05 8.80731 171.157 8.64641L176.43 7.88026L178.788 3.10254ZM179.998 4.03894L177.74 8.61483C177.543 9.01327 177.163 9.28944 176.724 9.35333L171.674 10.0871L175.328 13.6489C175.646 13.9591 175.791 14.4059 175.716 14.8439L174.854 19.8733L179.37 17.4987C179.763 17.2919 180.233 17.2919 180.627 17.4987L185.143 19.8733L184.281 14.8439C184.206 14.4059 184.351 13.9591 184.669 13.6489L188.323 10.0871L183.273 9.35333C182.834 9.28944 182.453 9.01327 182.257 8.61483L179.998 4.03894Z" fill="#F7630C"/>
</g>
<g clip-path="url(#clip9_48_3183)">
<path d="M198.72 8.71474L203.214 4.21969C203.48 3.95361 203.897 3.9292 204.19 4.14661L204.275 4.21909L208.779 8.71415C209.073 9.00672 209.073 9.4816 208.781 9.77481C208.515 10.0414 208.098 10.066 207.804 9.84849L207.72 9.77596L204.497 6.55911L204.498 19.2549C204.498 19.6346 204.216 19.9484 203.849 19.9981L203.748 20.0049C203.368 20.0049 203.054 19.7228 203.005 19.3567L202.998 19.2549L202.997 6.55711L199.78 9.77537C199.514 10.0416 199.097 10.0659 198.804 9.84802L198.72 9.7754C198.453 9.50914 198.429 9.09248 198.647 8.79886L198.72 8.71474L203.214 4.21969L198.72 8.71474Z" fill="white"/>
</g>
<g clip-path="url(#clip10_48_3183)">
<path d="M227.649 4.00685L227.751 4C228.131 4 228.444 4.28215 228.494 4.64823L228.501 4.75L228.5 17.446L231.719 14.2248C231.986 13.9585 232.402 13.9341 232.696 14.1518L232.78 14.2244C233.046 14.4905 233.071 14.9072 232.853 15.2009L232.781 15.2851L228.284 19.7851C228.018 20.0514 227.602 20.0758 227.308 19.8581L227.224 19.7855L222.72 15.2855C222.427 14.9927 222.427 14.5179 222.719 14.2248C222.986 13.9585 223.402 13.9341 223.696 14.1518L223.78 14.2244L227 17.442L227.001 4.75C227.001 4.3703 227.283 4.05651 227.649 4.00685L227.751 4L227.649 4.00685Z" fill="white"/>
</g>
<g clip-path="url(#clip11_48_3183)">
<path d="M252.012 2.25006C252.746 2.25852 253.478 2.34332 254.194 2.5031C254.507 2.57285 254.741 2.83357 254.776 3.15202L254.946 4.67887C255.023 5.37992 255.615 5.9109 256.321 5.91164C256.511 5.91194 256.698 5.87244 256.873 5.79489L258.274 5.17962C258.565 5.05165 258.906 5.12142 259.123 5.35368C260.135 6.4347 260.889 7.73121 261.328 9.14564C261.423 9.45064 261.314 9.78209 261.057 9.97156L259.815 10.8867C259.461 11.1469 259.252 11.5601 259.252 11.9995C259.252 12.439 259.461 12.8522 259.816 13.113L261.059 14.0284C261.316 14.2178 261.425 14.5493 261.33 14.8544C260.891 16.2685 260.138 17.565 259.126 18.6462C258.909 18.8784 258.569 18.9483 258.278 18.8207L256.871 18.2046C256.469 18.0285 256.007 18.0543 255.627 18.274C255.247 18.4938 254.994 18.8813 254.945 19.3178L254.776 20.8445C254.741 21.1593 254.512 21.4182 254.204 21.4916C252.756 21.8362 251.247 21.8362 249.798 21.4916C249.49 21.4182 249.261 21.1593 249.226 20.8445L249.058 19.32C249.008 18.8843 248.755 18.498 248.375 18.279C247.995 18.06 247.534 18.0344 247.133 18.2094L245.726 18.8257C245.435 18.9534 245.094 18.8833 244.877 18.651C243.865 17.5685 243.111 16.2706 242.674 14.8549C242.579 14.5499 242.688 14.2187 242.945 14.0294L244.188 13.1134C244.543 12.8532 244.752 12.44 244.752 12.0005C244.752 11.5611 244.543 11.1479 244.188 10.8873L242.945 9.97291C242.688 9.78351 242.579 9.45184 242.674 9.14664C243.112 7.73221 243.866 6.4357 244.878 5.35468C245.096 5.12242 245.436 5.05265 245.728 5.18062L247.128 5.79579C247.531 5.97262 247.994 5.94591 248.376 5.72275C248.756 5.50215 249.01 5.11428 249.058 4.6777L249.229 3.15202C249.264 2.83341 249.498 2.5726 249.811 2.503C250.528 2.34348 251.26 2.25871 252.012 2.25006ZM252.013 3.74996C251.559 3.75531 251.106 3.79449 250.658 3.86708L250.549 4.84425C250.447 5.75374 249.92 6.56108 249.131 7.01909C248.336 7.48323 247.368 7.53909 246.525 7.16923L245.627 6.77462C245.055 7.46879 244.599 8.25141 244.279 9.09174L245.077 9.67885C245.815 10.2217 246.252 11.0837 246.252 12.0005C246.252 12.9173 245.815 13.7794 245.077 14.3216L244.278 14.9103C244.599 15.7521 245.054 16.5362 245.626 17.2317L246.531 16.8351C247.37 16.4692 248.332 16.5228 249.124 16.9795C249.916 17.4362 250.445 18.2418 250.548 19.1527L250.657 20.1366C251.547 20.2878 252.456 20.2878 253.345 20.1366L253.454 19.1527C253.555 18.2421 254.083 17.4337 254.876 16.9753C255.67 16.5169 256.633 16.4631 257.473 16.8305L258.378 17.2268C258.949 16.5323 259.404 15.7495 259.725 14.909L258.927 14.3212C258.188 13.7784 257.752 12.9163 257.752 11.9995C257.752 11.0827 258.188 10.2207 258.926 9.67853L259.723 9.09116C259.402 8.25067 258.947 7.4679 258.375 6.77362L257.479 7.16743C257.113 7.32907 256.718 7.41226 256.319 7.41164C254.849 7.4101 253.616 6.30361 253.455 4.84389L253.347 3.86676C252.901 3.79426 252.453 3.75518 252.013 3.74996ZM252 8.25001C254.071 8.25001 255.75 9.92894 255.75 12C255.75 14.0711 254.071 15.75 252 15.75C249.929 15.75 248.25 14.0711 248.25 12C248.25 9.92894 249.929 8.25001 252 8.25001ZM252 9.75001C250.757 9.75001 249.75 10.7574 249.75 12C249.75 13.2427 250.757 14.25 252 14.25C253.243 14.25 254.25 13.2427 254.25 12C254.25 10.7574 253.243 9.75001 252 9.75001Z" fill="white"/>
<path d="M252 8.25C254.071 8.25 255.75 9.92893 255.75 12C255.75 14.0711 254.071 15.75 252 15.75C249.929 15.75 248.25 14.0711 248.25 12C248.25 9.92893 249.929 8.25 252 8.25ZM252 9.75C250.757 9.75 249.75 10.7574 249.75 12C249.75 13.2426 250.757 14.25 252 14.25C253.243 14.25 254.25 13.2426 254.25 12C254.25 10.7574 253.243 9.75 252 9.75Z" fill="#F7630C"/>
</g>
<g clip-path="url(#clip12_48_3183)">
<path d="M274.55 2.53189C275.387 1.82531 276.613 1.82531 277.45 2.5319L284.2 8.224C284.707 8.65152 285 9.2809 285 9.94406L285 19.2539C285 20.2204 284.216 21.0039 283.25 21.0039H279.75C278.783 21.0039 278 20.2204 278 19.2539L278 14.2468C278 14.1088 277.888 13.9968 277.75 13.9968H274.25C274.112 13.9968 274 14.1088 274 14.2468L274 19.2539C274 20.2204 273.216 21.0039 272.25 21.0039H268.75C267.784 21.0039 267 20.2204 267 19.2539V9.94406C267 9.2809 267.293 8.65152 267.8 8.224L274.55 2.53189ZM276.483 3.6786C276.204 3.44307 275.796 3.44307 275.517 3.6786L268.767 9.37071C268.598 9.51321 268.5 9.72301 268.5 9.94406L268.5 19.2539C268.5 19.392 268.612 19.5039 268.75 19.5039H272.25C272.388 19.5039 272.5 19.392 272.5 19.2539L272.5 14.2468C272.5 13.2803 273.283 12.4968 274.25 12.4968H277.75C278.716 12.4968 279.5 13.2803 279.5 14.2468L279.5 19.2539C279.5 19.392 279.612 19.5039 279.75 19.5039H283.25C283.388 19.5039 283.5 19.392 283.5 19.2539L283.5 9.94406C283.5 9.72301 283.402 9.51321 283.233 9.37071L276.483 3.6786Z" fill="white"/>
</g>
<g clip-path="url(#clip13_48_3183)">
<path d="M296.204 4.82022C296.58 4.64521 297.026 4.80767 297.201 5.1831C297.376 5.55852 297.213 6.00474 296.838 6.17975C294.214 7.40306 292.5 10.0413 292.5 12.9911C292.5 17.1384 295.858 20.5 299.999 20.5C304.14 20.5 307.498 17.1384 307.498 12.9911C307.498 10.0474 305.791 7.41365 303.175 6.18693C302.8 6.01107 302.639 5.56448 302.815 5.18946C302.991 4.81443 303.437 4.65298 303.812 4.82885C306.95 6.30041 308.998 9.46042 308.998 12.9911C308.998 17.9664 304.969 22 299.999 22C295.029 22 291 17.9664 291 12.9911C291 9.45309 293.056 6.28771 296.204 4.82022ZM299.999 2.49585C300.379 2.49585 300.692 2.778 300.742 3.14408L300.749 3.24585V10.7458C300.749 11.16 300.413 11.4958 299.999 11.4958C299.619 11.4958 299.305 11.2136 299.256 10.8476L299.249 10.7458V3.24585C299.249 2.83164 299.585 2.49585 299.999 2.49585Z" fill="white"/>
</g>
<g clip-path="url(#clip14_48_3183)">
<path d="M318.25 3.5C317.836 3.5 317.5 3.83579 317.5 4.25V19.75C317.5 20.1642 317.836 20.5 318.25 20.5H322.029C321.922 21.0483 322.038 21.5732 322.301 22H318.25C317.007 22 316 20.9926 316 19.75V4.25C316 3.00736 317.007 2 318.25 2H324.336C324.8 2 325.245 2.18437 325.573 2.51256L331.487 8.42678C331.816 8.75497 332 9.20009 332 9.66421V10H331.87C331.759 9.99447 331.648 9.99447 331.538 10H326C324.895 10 324 9.10457 324 8V3.5H318.25ZM325.5 4.56066V8C325.5 8.27614 325.724 8.5 326 8.5H329.439L325.5 4.56066ZM331.713 11H331.715C332.3 11.0003 332.884 11.2234 333.331 11.6695C334.223 12.5621 334.223 14.0093 333.331 14.9019L327.428 20.8043C327.084 21.1485 326.653 21.3926 326.181 21.5106L324.35 21.9683C323.554 22.1674 322.833 21.4462 323.032 20.6501L323.489 18.8194C323.607 18.3472 323.852 17.916 324.196 17.5719L330.098 11.6695C330.544 11.2234 331.129 11.0003 331.713 11Z" fill="white"/>
<path d="M331.713 11H331.715C332.3 11.0003 332.884 11.2234 333.331 11.6695C334.223 12.5621 334.223 14.0093 333.331 14.9019L327.428 20.8043C327.084 21.1485 326.653 21.3926 326.181 21.5106L324.35 21.9683C323.554 22.1674 322.833 21.4462 323.032 20.6501L323.489 18.8194C323.607 18.3472 323.852 17.916 324.196 17.5719L330.098 11.6695C330.544 11.2234 331.129 11.0003 331.713 11Z" fill="#F7630C"/>
</g>
<g clip-path="url(#clip15_48_3183)">
<path d="M353.5 11C356.538 11 359 13.4624 359 16.5C359 19.5376 356.538 22 353.5 22C350.462 22 348 19.5376 348 16.5C348 13.4624 350.462 11 353.5 11ZM344.207 4C344.667 4 345.115 4.14129 345.491 4.40235L345.647 4.5215L348.022 6.5H355.75C356.887 6.5 357.827 7.34297 357.979 8.43788L357.995 8.59595L358 8.75L358.001 11.8104C357.557 11.384 357.052 11.02 356.501 10.7328L356.5 8.75C356.5 8.3703 356.218 8.05651 355.852 8.00685L355.75 8H348.021L345.647 9.9785C345.294 10.2733 344.859 10.4515 344.403 10.4914L344.207 10.5L339.5 10.499V17.75C339.5 18.1297 339.782 18.4435 340.148 18.4932L340.25 18.5L347.314 18.5004C347.486 19.0342 347.726 19.5378 348.023 20.0012L340.25 20C339.059 20 338.084 19.0748 338.005 17.904L338 17.75V6.25C338 5.05914 338.925 4.08436 340.096 4.00519L340.25 4H344.207ZM353.792 13.5452L353.716 13.5886L353.646 13.6464L353.589 13.7157C353.47 13.8862 353.47 14.1138 353.589 14.2843L353.646 14.3536L355.292 16H350L349.91 16.0081C349.706 16.0451 349.545 16.206 349.508 16.4101L349.5 16.5L349.508 16.5899C349.545 16.794 349.706 16.9549 349.91 16.9919L350 17H355.292L353.646 18.6464L353.589 18.7157C353.454 18.9106 353.473 19.18 353.646 19.3536C353.82 19.5271 354.089 19.5464 354.284 19.4114L354.354 19.3536L356.882 16.8221L356.928 16.7585L356.962 16.691L356.983 16.6281L356.998 16.5463L357 16.5L356.997 16.4466L356.983 16.3719L356.953 16.2886L356.911 16.2153L356.866 16.1589L354.354 13.6464L354.284 13.5886C354.138 13.4873 353.95 13.4729 353.792 13.5452ZM344.207 5.5H340.25C339.87 5.5 339.557 5.78215 339.507 6.14823L339.5 6.25V8.999L344.207 9C344.347 9 344.484 8.96063 344.602 8.88738L344.687 8.82617L346.578 7.249L344.687 5.67383C344.579 5.58398 344.449 5.52664 344.311 5.5073L344.207 5.5Z" fill="white"/>
</g>
<g clip-path="url(#clip16_48_3183)">
<path d="M370.946 2.04712L370.95 2.05443C371.295 2.01845 371.646 2 372 2C377.523 2 382 6.47715 382 12C382 17.5228 377.523 22 372 22C368.791 22 365.935 20.4882 364.105 18.1379L364.102 18.1374L364.103 18.1353C362.785 16.4414 362 14.3123 362 12C362 6.83804 365.911 2.58957 370.932 2.05639L370.946 2.04712ZM372 3.5C371.947 3.5 371.894 3.50049 371.841 3.50146C371.963 3.74566 372.095 4.0343 372.214 4.35179C372.561 5.27352 372.88 6.6329 372.314 7.83787C371.792 8.95068 370.89 9.23859 370.224 9.41051L370.14 9.43235C369.483 9.60154 369.231 9.6666 369.047 9.9461C368.878 10.2026 368.903 10.5284 369.108 11.1957C369.123 11.2426 369.138 11.2922 369.154 11.3439C369.236 11.6023 369.333 11.9138 369.384 12.2067C369.448 12.5711 369.466 13.0344 369.232 13.4822C369.001 13.9264 368.694 14.2292 368.331 14.4267C367.991 14.6123 367.638 14.6826 367.374 14.7294L367.281 14.7458C366.766 14.8364 366.52 14.8798 366.28 15.1368C366.094 15.3362 365.974 15.6885 365.904 16.2149C365.875 16.4291 365.858 16.6415 365.84 16.8611L365.831 16.9782C365.811 17.2205 365.786 17.4994 365.731 17.7388L365.731 17.7402C367.285 19.4364 369.518 20.5 372 20.5C373.577 20.5 375.054 20.0705 376.32 19.3222C376.221 19.222 376.115 19.1044 376.009 18.9718C375.67 18.5444 375.224 17.8081 375.379 16.939C375.453 16.5211 375.677 16.1712 375.894 15.9029C376.114 15.6295 376.38 15.3769 376.613 15.1626C376.668 15.1117 376.721 15.0633 376.772 15.0169C376.951 14.8542 377.102 14.7159 377.232 14.5802C377.404 14.3991 377.442 14.3175 377.444 14.3133C377.512 14.0886 377.429 13.9294 377.338 13.8592C377.292 13.824 377.231 13.7984 377.148 13.7978C377.064 13.7971 376.928 13.8222 376.747 13.9372C376.537 14.07 376.232 14.152 375.911 14.0228C375.644 13.9151 375.496 13.709 375.424 13.5914C375.281 13.3535 375.2 13.0452 375.147 12.8191C375.106 12.6447 375.068 12.4467 375.032 12.2661C375.018 12.1938 375.005 12.1242 374.992 12.0601C374.941 11.8103 374.898 11.6318 374.858 11.5209C374.857 11.5195 374.852 11.5073 374.838 11.4825C374.824 11.4555 374.803 11.421 374.774 11.3777C374.716 11.2894 374.641 11.1857 374.547 11.0613C374.512 11.0161 374.476 10.968 374.437 10.9176C374.276 10.7064 374.084 10.4548 373.921 10.206C373.725 9.90761 373.504 9.51768 373.434 9.10184C373.397 8.88146 373.398 8.62694 373.489 8.36839C373.583 8.10363 373.754 7.88589 373.976 7.7194C374.459 7.35683 375.169 6.54683 375.799 5.76036C376.086 5.40123 376.343 5.06476 376.535 4.80938C375.222 3.98001 373.667 3.5 372 3.5ZM377.727 5.71921C377.53 5.98266 377.266 6.32814 376.97 6.69797C376.368 7.44937 375.57 8.38281 374.92 8.88539C374.946 8.98427 375.02 9.14727 375.175 9.38298C375.306 9.58278 375.456 9.77946 375.614 9.98695C375.657 10.0428 375.7 10.0999 375.744 10.1576C375.916 10.386 376.155 10.7047 376.265 11.0014C376.351 11.2349 376.413 11.52 376.462 11.7628C376.479 11.8485 376.495 11.9304 376.511 12.0092C376.536 12.1396 376.56 12.2616 376.585 12.3786C377.187 12.2069 377.787 12.3106 378.255 12.6726C378.864 13.1432 379.118 13.9589 378.88 14.7472C378.77 15.1089 378.516 15.4071 378.317 15.6159C378.148 15.7929 377.945 15.9777 377.761 16.1452C377.716 16.1867 377.671 16.2274 377.629 16.2663C377.399 16.478 377.206 16.6656 377.061 16.8447C376.912 17.0289 376.866 17.144 376.856 17.2014C376.817 17.4199 376.923 17.7109 377.184 18.0388C377.302 18.1875 377.428 18.3128 377.525 18.4015C377.537 18.4119 377.548 18.4218 377.558 18.431C379.36 16.8724 380.5 14.5693 380.5 12C380.5 9.512 379.431 7.27366 377.727 5.71921ZM363.5 12C363.5 13.3984 363.838 14.7178 364.436 15.8814C364.521 15.324 364.698 14.6334 365.184 14.1132C365.783 13.4706 366.519 13.3501 366.982 13.2744C367.028 13.2668 367.072 13.2596 367.112 13.2525C367.36 13.2085 367.503 13.1697 367.614 13.1095C367.702 13.0613 367.802 12.9818 367.902 12.789C367.917 12.7605 367.944 12.6815 367.906 12.4638C367.874 12.2775 367.813 12.0826 367.734 11.8276C367.715 11.7674 367.695 11.7033 367.674 11.6357C367.489 11.0324 367.193 10.0335 367.794 9.12099C368.316 8.32904 369.155 8.12658 369.687 7.99806C369.745 7.98412 369.799 7.97106 369.849 7.9582C370.412 7.81276 370.732 7.67794 370.957 7.20026C371.252 6.57127 371.125 5.71532 370.811 4.88019C370.662 4.48421 370.487 4.13625 370.348 3.88653C370.305 3.80813 370.265 3.74015 370.232 3.68419C366.386 4.49793 363.5 7.91193 363.5 12Z" fill="white"/>
</g>
<g clip-path="url(#clip17_48_3183)">
<path d="M394.733 19.7907C395.033 20.0764 395.507 20.0649 395.793 19.765C396.079 19.465 396.067 18.9903 395.767 18.7046L389.516 12.75L404.25 12.75C404.664 12.75 405 12.4142 405 12C405 11.5858 404.664 11.25 404.25 11.25L389.516 11.25L395.767 5.29529C396.067 5.00961 396.079 4.53487 395.793 4.23495C395.507 3.93502 395.033 3.92348 394.733 4.20916L387.314 11.2759C387.145 11.4368 387.045 11.642 387.014 11.8554C387.005 11.9022 387 11.9505 387 12C387 12.0496 387.005 12.098 387.014 12.1449C387.045 12.3581 387.145 12.5632 387.314 12.724L394.733 19.7907Z" fill="white"/>
</g>
<g clip-path="url(#clip18_48_3183)">
<path d="M421.267 4.20926C420.967 3.92357 420.493 3.93511 420.207 4.23504C419.921 4.53497 419.933 5.0097 420.233 5.29539L426.484 11.25H411.75C411.336 11.25 411 11.5858 411 12C411 12.4142 411.336 12.75 411.75 12.75H426.484L420.233 18.7047C419.933 18.9904 419.921 19.4651 420.207 19.7651C420.493 20.065 420.967 20.0765 421.267 19.7908L428.686 12.7241C428.855 12.5632 428.955 12.358 428.986 12.1446C428.995 12.0978 429 12.0495 429 12C429 11.9504 428.995 11.902 428.986 11.8551C428.955 11.6419 428.855 11.4368 428.686 11.276L421.267 4.20926Z" fill="white"/>
</g>
<g clip-path="url(#clip19_48_3183)">
<path d="M444 4.5C439.858 4.5 436.5 7.85786 436.5 12C436.5 16.1421 439.858 19.5 444 19.5C448.142 19.5 451.5 16.1421 451.5 12C451.5 11.6236 451.472 11.2538 451.419 10.8923C451.352 10.4382 451.684 10 452.143 10C452.514 10 452.839 10.2562 452.895 10.6228C452.964 11.0718 453 11.5317 453 12C453 16.9706 448.971 21 444 21C439.029 21 435 16.9706 435 12C435 7.02944 439.029 3 444 3C446.305 3 448.408 3.86656 450 5.29168V4.25C450 3.83579 450.336 3.5 450.75 3.5C451.164 3.5 451.5 3.83579 451.5 4.25V7.25C451.5 7.66421 451.164 8 450.75 8H447.75C447.336 8 447 7.66421 447 7.25C447 6.83579 447.336 6.5 447.75 6.5H449.099C447.761 5.25883 445.969 4.5 444 4.5Z" fill="white"/>
</g>
<g clip-path="url(#clip20_48_3183)">
<path d="M460.397 4.55379L460.47 4.46967C460.736 4.2034 461.153 4.1792 461.446 4.39705L461.53 4.46967L468 10.939L474.47 4.46967C474.763 4.17678 475.237 4.17678 475.53 4.46967C475.823 4.76256 475.823 5.23744 475.53 5.53033L469.061 12L475.53 18.4697C475.797 18.7359 475.821 19.1526 475.603 19.4462L475.53 19.5303C475.264 19.7966 474.847 19.8208 474.554 19.6029L474.47 19.5303L468 13.061L461.53 19.5303C461.237 19.8232 460.763 19.8232 460.47 19.5303C460.177 19.2374 460.177 18.7626 460.47 18.4697L466.939 12L460.47 5.53033C460.203 5.26406 460.179 4.8474 460.397 4.55379L460.47 4.46967L460.397 4.55379Z" fill="white"/>
</g>
<g clip-path="url(#clip21_48_3183)">
<path d="M485.25 4C483.455 4 482 5.45507 482 7.25V16.75C482 18.5449 483.455 20 485.25 20H498.75C500.545 20 502 18.5449 502 16.75V7.25C502 5.45507 500.545 4 498.75 4H485.25ZM483.5 7.25C483.5 6.2835 484.284 5.5 485.25 5.5H498.75C499.716 5.5 500.5 6.2835 500.5 7.25V16.75C500.5 17.7165 499.716 18.5 498.75 18.5H485.25C484.284 18.5 483.5 17.7165 483.5 16.75V7.25ZM498.25 7C497.836 7 497.5 7.33579 497.5 7.75V8.25C497.5 8.66421 497.836 9 498.25 9C498.664 9 499 8.66421 499 8.25V7.75C499 7.33579 498.664 7 498.25 7ZM497.5 15.75C497.5 15.3358 497.836 15 498.25 15C498.664 15 499 15.3358 499 15.75V16.25C499 16.6642 498.664 17 498.25 17C497.836 17 497.5 16.6642 497.5 16.25V15.75ZM498.25 11C497.836 11 497.5 11.3358 497.5 11.75V12.25C497.5 12.6642 497.836 13 498.25 13C498.664 13 499 12.6642 499 12.25V11.75C499 11.3358 498.664 11 498.25 11ZM485 7.75C485 7.33579 485.336 7 485.75 7C486.164 7 486.5 7.33579 486.5 7.75V8.25C486.5 8.66421 486.164 9 485.75 9C485.336 9 485 8.66421 485 8.25V7.75ZM485.75 15C485.336 15 485 15.3358 485 15.75V16.25C485 16.6642 485.336 17 485.75 17C486.164 17 486.5 16.6642 486.5 16.25V15.75C486.5 15.3358 486.164 15 485.75 15ZM485 11.75C485 11.3358 485.336 11 485.75 11C486.164 11 486.5 11.3358 486.5 11.75V12.25C486.5 12.6642 486.164 13 485.75 13C485.336 13 485 12.6642 485 12.25V11.75ZM490 9.75123C490 9.17203 490.576 8.81137 491.034 9.10362L494.709 11.4466C495.097 11.6941 495.097 12.306 494.709 12.5534L491.034 14.8964C490.576 15.1886 490 14.828 490 14.2488V9.75123Z" fill="white"/>
<path d="M490 9.75123C490 9.17203 490.576 8.81137 491.034 9.10362L494.709 11.4466C495.097 11.6941 495.097 12.306 494.709 12.5534L491.034 14.8964C490.576 15.1886 490 14.828 490 14.2488V9.75123Z" fill="#F7630C"/>
</g>
<g clip-path="url(#clip22_48_3183)">
<path fill-rule="evenodd" clip-rule="evenodd" d="M518.751 5C518.336 5 518.001 5.33575 518.001 5.74992C518.001 6.12644 518.278 6.43815 518.64 6.49171L518.751 6.49984H521C522.933 6.49984 524.5 8.06669 524.5 9.99948C524.5 11.8632 523.043 13.3867 521.206 13.4932L521 13.4991H518.751C518.336 13.4991 518.001 13.8349 518.001 14.249C518.001 14.6256 518.278 14.9373 518.64 14.9908L518.751 14.999H521C523.762 14.999 526 12.7606 526 9.99948C526 7.32202 523.895 5.13614 521.25 5.00612L521 5H518.751ZM511.001 5C508.24 5 506.002 7.23834 506.002 9.99948H507.502C507.502 8.13571 508.959 6.61223 510.796 6.50579L511.001 6.49984H513.251C513.665 6.49984 514.001 6.16409 514.001 5.74992C514.001 5.3734 513.724 5.06169 513.362 5.00813L513.251 5H511.001ZM521 9.24956H511.001C510.587 9.24956 510.251 9.58531 510.251 9.99948C510.251 10.3791 510.534 10.6929 510.9 10.7426L511.001 10.7494H521C521.415 10.7494 521.75 10.4137 521.75 9.99948C521.75 9.61983 521.468 9.30606 521.102 9.25641L521 9.24956Z" fill="white"/>
<path d="M507.503 10.0233C507.503 10.4375 507.167 10.7733 506.753 10.7733C506.338 10.7733 506.003 10.4375 506.003 10.0233L507.503 10.0233ZM507.503 9.99948L507.503 10.0233L506.003 10.0233L506.003 9.99948L507.503 9.99948Z" fill="white"/>
<path d="M505 17.5C505 14.4624 507.462 12 510.5 12C513.538 12 516 14.4624 516 17.5C516 20.5376 513.538 23 510.5 23C507.462 23 505 20.5376 505 17.5ZM509.999 18L509.999 20.5035C509.999 20.7797 510.223 21.0035 510.499 21.0035C510.775 21.0035 510.999 20.7797 510.999 20.5035L510.999 18H513.504C513.78 18 514.004 17.7762 514.004 17.5C514.004 17.2239 513.78 17 513.504 17H511L511 14.4993C511 14.2231 510.776 13.9993 510.5 13.9993C510.224 13.9993 510 14.2231 510 14.4993L510 17H507.503C507.228 17 507.004 17.2239 507.004 17.5C507.004 17.7762 507.228 18 507.503 18H509.999Z" fill="#F7630C"/>
</g>
<g clip-path="url(#clip23_48_3183)">
<path d="M547.729 3.9171L547.78 4.07675L548.331 5.99928C548.436 6.36426 548.251 6.74367 547.913 6.89232L547.817 6.92695L537.09 10.002L548.249 10.003C548.629 10.003 548.942 10.2851 548.992 10.6512L548.999 10.753V19.251C548.999 20.7135 547.857 21.9094 546.416 21.996L546.249 22.001H533.75C532.287 22.001 531.092 20.8593 531.005 19.4185L531 19.251L531 10.859L530.478 9.03791C530.075 7.63203 530.843 6.16779 532.204 5.68744L532.364 5.63644L544.378 2.19129C545.784 1.78816 547.248 2.55601 547.729 3.9171ZM547.498 11.502H532.5V19.251C532.5 19.8551 532.928 20.359 533.498 20.4756L533.622 20.4945L533.75 20.501H546.249C546.896 20.501 547.428 20.0091 547.492 19.3788L547.499 19.251L547.498 11.502ZM534.273 6.64944L532.777 7.07833C532.155 7.25672 531.779 7.87628 531.891 8.49983L531.92 8.62447L532.264 9.82531L532.559 9.74045L534.273 6.64944ZM539.029 5.28558L536.312 6.06481L534.598 9.15582L537.316 8.3766L539.029 5.28558ZM543.786 3.92146L541.069 4.70068L539.355 7.79169L542.072 7.01274L543.786 3.92146ZM545.633 3.6879L544.113 6.42756L546.681 5.6913L546.338 4.49021C546.231 4.11649 545.964 3.83155 545.633 3.6879Z" fill="white"/>
</g>
<g clip-path="url(#clip24_48_3183)">
<path d="M566.998 5C570.864 5 573.998 8.13401 573.998 12C573.998 15.7855 570.993 18.8691 567.239 18.9959L566.998 19H561.002C557.136 19 554.002 15.866 554.002 12C554.002 8.21455 557.007 5.1309 560.761 5.00406L561.002 5H566.998ZM566.998 6.5H561.002C557.965 6.5 555.502 8.96243 555.502 12C555.502 14.9635 557.846 17.3795 560.781 17.4956L561.002 17.5H566.998C570.035 17.5 572.498 15.0376 572.498 12C572.498 9.03652 570.154 6.62046 567.219 6.50437L566.998 6.5ZM560 9C560.414 9 560.75 9.33579 560.75 9.75L560.749 11.248L562.25 11.2487C562.664 11.2487 563 11.5845 563 11.9987C563 12.413 562.664 12.7487 562.25 12.7487L560.749 12.748L560.75 14.25C560.75 14.6642 560.414 15 560 15C559.586 15 559.25 14.6642 559.25 14.25L559.249 12.748L557.75 12.7487C557.336 12.7487 557 12.413 557 11.9987C557 11.5845 557.336 11.2487 557.75 11.2487L559.249 11.248L559.25 9.75C559.25 9.33579 559.586 9 560 9ZM566.75 12.5C567.44 12.5 568 13.0596 568 13.75C568 14.4404 567.44 15 566.75 15C566.06 15 565.5 14.4404 565.5 13.75C565.5 13.0596 566.06 12.5 566.75 12.5ZM568.75 9C569.44 9 570 9.55964 570 10.25C570 10.9404 569.44 11.5 568.75 11.5C568.06 11.5 567.5 10.9404 567.5 10.25C567.5 9.55964 568.06 9 568.75 9Z" fill="white"/>
</g>
<g clip-path="url(#clip25_48_3183)">
<path d="M582.25 3C580.455 3 579 4.45507 579 6.25V17.75C579 19.5449 580.455 21 582.25 21H593.75C595.545 21 597 19.5449 597 17.75V6.25C597 4.45507 595.545 3 593.75 3H582.25ZM595.5 7H580.5V6.25C580.5 5.2835 581.284 4.5 582.25 4.5H593.75C594.716 4.5 595.5 5.2835 595.5 6.25V7ZM580.5 8.5H595.5V17.75C595.5 18.7165 594.716 19.5 593.75 19.5H582.25C581.284 19.5 580.5 18.7165 580.5 17.75V8.5Z" fill="white"/>
</g>
<g clip-path="url(#clip26_48_3183)">
<path d="M619.698 2.14829C619.888 2.28981 620 2.51293 620 2.75001V16.25C620 16.2767 619.999 16.303 619.996 16.329C619.999 16.3856 620 16.4427 620 16.5C620 18.433 618.433 20 616.5 20C614.567 20 613 18.433 613 16.5C613 14.567 614.567 13 616.5 13C617.244 13 617.933 13.2319 618.5 13.6273V7.75803L610 10.308V18.25C610 18.2766 609.999 18.303 609.996 18.3289C609.999 18.3856 610 18.4426 610 18.5C610 20.433 608.433 22 606.5 22C604.567 22 603 20.433 603 18.5C603 16.567 604.567 15 606.5 15C607.244 15 607.933 15.2319 608.5 15.6273V5.75001C608.5 5.4188 608.717 5.12681 609.034 5.03164L619.034 2.03164C619.262 1.96351 619.507 2.00677 619.698 2.14829ZM610 8.74198L618.5 6.19198V3.75803L610 6.30803V8.74198ZM606.5 16.5C605.395 16.5 604.5 17.3954 604.5 18.5C604.5 19.6046 605.395 20.5 606.5 20.5C607.605 20.5 608.5 19.6046 608.5 18.5C608.5 17.3954 607.605 16.5 606.5 16.5ZM614.5 16.5C614.5 17.6046 615.395 18.5 616.5 18.5C617.605 18.5 618.5 17.6046 618.5 16.5C618.5 15.3954 617.605 14.5 616.5 14.5C615.395 14.5 614.5 15.3954 614.5 16.5Z" fill="white"/>
</g>
<g clip-path="url(#clip27_48_3183)">
<path d="M633.562 3C629.419 3 626.062 6.35786 626.062 10.5C626.062 11.6329 626.313 12.7088 626.764 13.6734C626.51 14.6714 626.226 15.7842 626.04 16.5147C625.807 17.428 626.629 18.2588 627.544 18.039C628.294 17.8587 629.447 17.5819 630.474 17.337C631.417 17.7631 632.462 18 633.562 18C637.704 18 641.062 14.6421 641.062 10.5C641.062 6.35786 637.704 3 633.562 3ZM627.562 10.5C627.562 7.18629 630.248 4.5 633.562 4.5C636.875 4.5 639.562 7.18629 639.562 10.5C639.562 13.8137 636.875 16.5 633.562 16.5C632.601 16.5 631.695 16.2748 630.892 15.8749L630.648 15.7537L630.384 15.8167C629.461 16.0363 628.395 16.2919 627.596 16.4838C627.795 15.7047 628.058 14.6724 628.286 13.7757L628.356 13.4998L628.226 13.2468C627.801 12.4246 627.562 11.4914 627.562 10.5ZM638.562 21.0001C636.592 21.0001 634.8 20.241 633.462 18.9995C633.495 18.9999 633.528 19.0001 633.562 19.0001C634.28 19.0001 634.977 18.911 635.643 18.7434C636.507 19.2254 637.502 19.5001 638.562 19.5001C639.522 19.5001 640.428 19.2748 641.232 18.8749L641.475 18.7537L641.739 18.8167C642.661 19.0361 643.705 19.2625 644.479 19.4262C644.304 18.6757 644.065 17.6711 643.837 16.7757L643.767 16.4999L643.898 16.2469C644.322 15.4247 644.562 14.4915 644.562 13.5001C644.562 11.3853 643.468 9.52617 641.815 8.45761C641.636 7.73435 641.365 7.04756 641.015 6.41052C643.952 7.42684 646.062 10.2171 646.062 13.5001C646.062 14.6332 645.81 15.7094 645.359 16.6741C645.612 17.6821 645.868 18.774 646.03 19.4773C646.235 20.3623 645.455 21.1633 644.563 20.9768C643.836 20.8248 642.693 20.581 641.65 20.3367C640.707 20.763 639.661 21.0001 638.562 21.0001Z" fill="white"/>
<path d="M633.562 3C629.419 3 626.062 6.35786 626.062 10.5C626.062 11.6329 626.313 12.7088 626.764 13.6734C626.51 14.6714 626.226 15.7842 626.04 16.5147C625.807 17.428 626.629 18.2588 627.544 18.039C628.294 17.8587 629.447 17.5819 630.474 17.337C631.417 17.7631 632.462 18 633.562 18C637.704 18 641.062 14.6421 641.062 10.5C641.062 6.35786 637.704 3 633.562 3ZM627.562 10.5C627.562 7.18629 630.248 4.5 633.562 4.5C636.875 4.5 639.562 7.18629 639.562 10.5C639.562 13.8137 636.875 16.5 633.562 16.5C632.601 16.5 631.695 16.2748 630.892 15.8749L630.648 15.7537L630.384 15.8167C629.461 16.0363 628.395 16.2919 627.596 16.4838C627.795 15.7047 628.058 14.6724 628.286 13.7757L628.356 13.4998L628.226 13.2468C627.801 12.4246 627.562 11.4914 627.562 10.5Z" fill="#F7630C"/>
</g>
<path fill-rule="evenodd" clip-rule="evenodd" d="M650.5 9.00001V7.50002L652 7.50001L657 7.5L658.5 7.5L658.5 9L658.5 12.3762C658.045 12.0203 657.541 11.7237 657 11.4982V10.5L657 9L655.5 9L653.5 9.00001H652V11.4982C651.459 11.7237 650.955 12.0203 650.5 12.3762V9.00001ZM658.747 22.4205C659.165 22.4733 659.584 22.5 660 22.5C664.6 22.5 669.5 19.2394 669.5 13.5333V9V7.5H668H663H661.5L661.5 9L661.5 14C661.5 14.7688 661.309 15.0699 661.189 15.1894C661.113 15.2655 660.963 15.3707 660.666 15.4371C660.822 15.9049 660.927 16.3965 660.973 16.9049C662.324 16.6122 663 15.6439 663 14L663 10.5V9L664.5 9L666.5 9H668V10.5V13.5333C668 18.2 664 21 660 21C659.993 21 659.985 21 659.978 21C659.638 21.5312 659.223 22.0097 658.747 22.4205Z" fill="white"/>
<path d="M652 8.25H651.25V7.5V5.5C651.25 4.5335 652.034 3.75 653 3.75H656C656.966 3.75 657.75 4.5335 657.75 5.5V7.5V8.25H657H652Z" stroke="white" stroke-width="1.5"/>
<path d="M663 8.25H662.25V7.5V5.5C662.25 4.5335 663.034 3.75 664 3.75H667C667.966 3.75 668.75 4.5335 668.75 5.5V7.5V8.25H668H663Z" stroke="white" stroke-width="1.5"/>
<path d="M649 17.5C649 14.4624 651.462 12 654.5 12C657.538 12 660 14.4624 660 17.5C660 20.5376 657.538 23 654.5 23C651.462 23 649 20.5376 649 17.5ZM653.999 18L653.999 20.5035C653.999 20.7797 654.223 21.0035 654.499 21.0035C654.775 21.0035 654.999 20.7797 654.999 20.5035L654.999 18H657.504C657.78 18 658.004 17.7762 658.004 17.5C658.004 17.2239 657.78 17 657.504 17H655L655 14.4993C655 14.2231 654.776 13.9993 654.5 13.9993C654.224 13.9993 654 14.2231 654 14.4993L654 17H651.503C651.228 17 651.004 17.2239 651.004 17.5C651.004 17.7762 651.228 18 651.503 18H653.999Z" fill="#F7630C"/>
<g clip-path="url(#clip28_48_3183)">
<path d="M680.255 8.99986C681.222 8.99986 682.005 9.78336 682.005 10.7499V20.25C682.005 21.2165 681.222 22 680.255 22H675.751C674.784 22 674.001 21.2165 674.001 20.25V10.7499C674.001 9.78336 674.784 8.99986 675.751 8.99986H680.255ZM680.255 10.4999H675.751C675.613 10.4999 675.501 10.6118 675.501 10.7499V20.25C675.501 20.3881 675.613 20.5 675.751 20.5H680.255C680.393 20.5 680.505 20.3881 680.505 20.25V10.7499C680.505 10.6118 680.393 10.4999 680.255 10.4999ZM678.25 18C678.664 18 679 18.3358 679 18.75C679 19.1297 678.718 19.4435 678.352 19.4932L678.25 19.5H677.75C677.336 19.5 677 19.1642 677 18.75C677 18.3703 677.282 18.0565 677.648 18.0068L677.75 18H678.25ZM691.75 2C692.941 2 693.916 2.92516 693.995 4.09595L694 4.25V13.25C694 14.4409 693.075 15.4156 691.904 15.4948L691.75 15.5H688.004V17.5H689.25C689.664 17.5 690 17.8358 690 18.25C690 18.6297 689.718 18.9435 689.352 18.9932L689.25 19H683V17.5H686.504V15.5H683V14H691.75C692.13 14 692.443 13.7178 692.493 13.3518L692.5 13.25V4.25C692.5 3.83579 692.164 3.5 691.75 3.5H678.25C677.87 3.5 677.557 3.78215 677.507 4.14823L677.5 4.25V8H676V4.25C676 3.05914 676.925 2.08436 678.096 2.00519L678.25 2H691.75Z" fill="white"/>
<path d="M680.255 8.99985C681.222 8.99985 682.005 9.78335 682.005 10.7498V20.25C682.005 21.2165 681.222 22 680.255 22H675.751C674.784 22 674.001 21.2165 674.001 20.25V10.7498C674.001 9.78335 674.784 8.99985 675.751 8.99985H680.255ZM680.255 10.4998H675.751C675.613 10.4998 675.501 10.6118 675.501 10.7498V20.25C675.501 20.3881 675.613 20.5 675.751 20.5H680.255C680.393 20.5 680.505 20.3881 680.505 20.25V10.7498C680.505 10.6118 680.393 10.4998 680.255 10.4998ZM678.25 18C678.664 18 679 18.3358 679 18.75C679 19.1297 678.718 19.4435 678.352 19.4931L678.25 19.5H677.75C677.336 19.5 677 19.1642 677 18.75C677 18.3703 677.282 18.0565 677.648 18.0068L677.75 18H678.25Z" fill="#F7630C"/>
</g>
</g>
<defs>
<clipPath id="clip0_48_3183">
<rect width="696" height="24" fill="white"/>
</clipPath>
<clipPath id="clip1_48_3183">
<rect width="24" height="24" fill="white"/>
</clipPath>
<clipPath id="clip2_48_3183">
<rect width="24" height="24" fill="white" transform="translate(24)"/>
</clipPath>
<clipPath id="clip3_48_3183">
<rect width="24" height="24" fill="white" transform="translate(48)"/>
</clipPath>
<clipPath id="clip4_48_3183">
<rect width="24" height="24" fill="white" transform="translate(72)"/>
</clipPath>
<clipPath id="clip5_48_3183">
<rect width="24" height="24" fill="white" transform="translate(96)"/>
</clipPath>
<clipPath id="clip6_48_3183">
<rect width="24" height="24" fill="white" transform="translate(120)"/>
</clipPath>
<clipPath id="clip7_48_3183">
<rect width="24" height="24" fill="white" transform="translate(144)"/>
</clipPath>
<clipPath id="clip8_48_3183">
<rect width="24" height="24" fill="white" transform="translate(168)"/>
</clipPath>
<clipPath id="clip9_48_3183">
<rect width="24" height="24" fill="white" transform="translate(192)"/>
</clipPath>
<clipPath id="clip10_48_3183">
<rect width="24" height="24" fill="white" transform="translate(216)"/>
</clipPath>
<clipPath id="clip11_48_3183">
<rect width="24" height="24" fill="white" transform="translate(240)"/>
</clipPath>
<clipPath id="clip12_48_3183">
<rect width="24" height="24" fill="white" transform="translate(264)"/>
</clipPath>
<clipPath id="clip13_48_3183">
<rect width="24" height="24" fill="white" transform="translate(288)"/>
</clipPath>
<clipPath id="clip14_48_3183">
<rect width="24" height="24" fill="white" transform="translate(312)"/>
</clipPath>
<clipPath id="clip15_48_3183">
<rect width="24" height="24" fill="white" transform="translate(336)"/>
</clipPath>
<clipPath id="clip16_48_3183">
<rect width="24" height="24" fill="white" transform="translate(360)"/>
</clipPath>
<clipPath id="clip17_48_3183">
<rect width="24" height="24" fill="white" transform="translate(384)"/>
</clipPath>
<clipPath id="clip18_48_3183">
<rect width="24" height="24" fill="white" transform="translate(408)"/>
</clipPath>
<clipPath id="clip19_48_3183">
<rect width="24" height="24" fill="white" transform="translate(432)"/>
</clipPath>
<clipPath id="clip20_48_3183">
<rect width="24" height="24" fill="white" transform="translate(456)"/>
</clipPath>
<clipPath id="clip21_48_3183">
<rect width="24" height="24" fill="white" transform="translate(480)"/>
</clipPath>
<clipPath id="clip22_48_3183">
<rect width="24" height="24" fill="white" transform="matrix(-1 0 0 1 528 0)"/>
</clipPath>
<clipPath id="clip23_48_3183">
<rect width="24" height="24" fill="white" transform="translate(528)"/>
</clipPath>
<clipPath id="clip24_48_3183">
<rect width="24" height="24" fill="white" transform="translate(552)"/>
</clipPath>
<clipPath id="clip25_48_3183">
<rect width="24" height="24" fill="white" transform="translate(576)"/>
</clipPath>
<clipPath id="clip26_48_3183">
<rect width="24" height="24" fill="white" transform="translate(600)"/>
</clipPath>
<clipPath id="clip27_48_3183">
<rect width="24" height="24" fill="white" transform="translate(624)"/>
</clipPath>
<clipPath id="clip28_48_3183">
<rect width="24" height="24" fill="white" transform="translate(672)"/>
</clipPath>
</defs>
</svg>
