<svg width="224" height="16" viewBox="0 0 224 16" fill="none" xmlns="http://www.w3.org/2000/svg">
<g clip-path="url(#clip0_48_2063)">
<path d="M4.5 2C3.11929 2 2 3.11929 2 4.5V11.5C2 12.8807 3.11929 14 4.5 14H11.5C12.8807 14 14 12.8807 14 11.5V4.5C14 3.11929 12.8807 2 11.5 2H4.5ZM13 5H3V4.5C3 3.67157 3.67157 3 4.5 3H11.5C12.3284 3 13 3.67157 13 4.5V5ZM3 6H13V11.5C13 12.3284 12.3284 13 11.5 13H4.5C3.67157 13 3 12.3284 3 11.5V6Z" fill="#212121"/>
<path d="M29.2182 4.24593L23.0868 6.23815C23.0146 6.28429 22.9317 6.31106 22.8466 6.31617L20.742 7H29.5C29.7762 7 30 7.22386 30 7.5V12.5C30 13.8807 28.8807 15 27.5 15H20.5C19.1193 15 18 13.8807 18 12.5V7.5C18 7.39326 18.0335 7.29433 18.0905 7.21312L17.8948 6.61081C17.4681 5.29767 18.1867 3.88728 19.4999 3.46062L26.1573 1.2975C27.4704 0.870839 28.8808 1.58947 29.3074 2.9026L29.5392 3.61589C29.6245 3.87852 29.4808 4.1606 29.2182 4.24593ZM25.4741 4.41098L26.7596 2.18454C26.6617 2.19582 26.5636 2.21695 26.4663 2.24856L25.2211 2.65315L23.9134 4.9181L25.4741 4.41098ZM27.7694 2.43205C27.7635 2.44449 27.7571 2.45679 27.7501 2.46892L26.8955 3.94917L28.4336 3.44938L28.3564 3.21162C28.2488 2.88066 28.0372 2.61264 27.7694 2.43205ZM23.7997 3.11497L22.239 3.62208L20.9313 5.88703L22.4921 5.37992L23.7997 3.11497ZM18.9231 6.53955L19.51 6.34885L20.8177 4.0839L19.8089 4.41168C19.021 4.66768 18.5898 5.51391 18.8458 6.30179L18.9231 6.53955ZM19 8V12.5C19 13.3284 19.6716 14 20.5 14H27.5C28.3285 14 29 13.3284 29 12.5V8H19Z" fill="#212121"/>
<path d="M44 5.20951V10.2675C43.7058 10.0974 43.3643 9.99998 43 9.99998C41.8954 9.99998 41 10.8954 41 12C41 13.1045 41.8954 14 43 14C44.1046 14 45 13.1045 45 12V1.92568C45 1.37245 44.4519 0.986213 43.9309 1.17228L37.5309 3.458C37.2125 3.57171 37 3.8733 37 4.21139V11.2675C36.7058 11.0974 36.3643 11 36 11C34.8954 11 34 11.8954 34 13C34 14.1045 34.8954 15 36 15C37.1046 15 38 14.1045 38 13V7.35237L44 5.20951ZM44 4.14765L38 6.2905V4.35233L44 2.20948V4.14765ZM43 11C43.5523 11 44 11.4477 44 12C44 12.5523 43.5523 13 43 13C42.4477 13 42 12.5523 42 12C42 11.4477 42.4477 11 43 11ZM36 12C36.5523 12 37 12.4477 37 13C37 13.5523 36.5523 14 36 14C35.4477 14 35 13.5523 35 13C35 12.4477 35.4477 12 36 12Z" fill="#212121"/>
<path d="M59.5 5.50207C59.5 6.0555 59.0514 6.50414 58.4979 6.50414C57.9445 6.50414 57.4958 6.0555 57.4958 5.50207C57.4958 4.94864 57.9445 4.5 58.4979 4.5C59.0514 4.5 59.5 4.94864 59.5 5.50207ZM50 4.5C50 3.11929 51.1193 2 52.5 2H59.5C60.8807 2 62 3.11929 62 4.5V11.5C62 12.8807 60.8807 14 59.5 14H52.5C51.1193 14 50 12.8807 50 11.5V4.5ZM52.5 3C51.6716 3 51 3.67157 51 4.5V11.5C51 11.7316 51.0525 11.9509 51.1462 12.1467L54.798 8.49499C55.4618 7.8311 56.5382 7.8311 57.2021 8.49499L60.8538 12.1467C60.9475 11.9509 61 11.7316 61 11.5V4.5C61 3.67157 60.3284 3 59.5 3H52.5ZM60.1467 12.8538L56.495 9.2021C56.2216 8.92873 55.7784 8.92873 55.5051 9.2021L51.8533 12.8538C52.0491 12.9475 52.2684 13 52.5 13H59.5C59.7316 13 59.9509 12.9475 60.1467 12.8538Z" fill="#212121"/>
<path d="M69 1C67.8954 1 67 1.89543 67 3V13C67 14.1046 67.8954 15 69 15H75C76.1046 15 77 14.1046 77 13V5.41421C77 5.01639 76.842 4.63486 76.5607 4.35355L73.6464 1.43934C73.3651 1.15804 72.9836 1 72.5858 1H69ZM68 3C68 2.44772 68.4477 2 69 2H72V4.5C72 5.32843 72.6716 6 73.5 6H76V13C76 13.5523 75.5523 14 75 14H69C68.4477 14 68 13.5523 68 13V3ZM75.7929 5H73.5C73.2239 5 73 4.77614 73 4.5V2.20711L75.7929 5Z" fill="#212121"/>
<path d="M82.5886 2.71569L82.6464 2.64645C82.82 2.47288 83.0894 2.4536 83.2843 2.58859L83.3536 2.64645L88 7.293L92.6464 2.64645C92.8417 2.45118 93.1583 2.45118 93.3536 2.64645C93.5488 2.84171 93.5488 3.15829 93.3536 3.35355L88.707 8L93.3536 12.6464C93.5271 12.82 93.5464 13.0894 93.4114 13.2843L93.3536 13.3536C93.18 13.5271 92.9106 13.5464 92.7157 13.4114L92.6464 13.3536L88 8.707L83.3536 13.3536C83.1583 13.5488 82.8417 13.5488 82.6464 13.3536C82.4512 13.1583 82.4512 12.8417 82.6464 12.6464L87.293 8L82.6464 3.35355C82.4729 3.17999 82.4536 2.91056 82.5886 2.71569L82.6464 2.64645L82.5886 2.71569Z" fill="#212121"/>
<path d="M98 5C98 3.34315 99.3431 2 101 2H107C108.657 2 110 3.34315 110 5V7.5C110 7.77614 109.776 8 109.5 8C109.224 8 109 7.77614 109 7.5V5C109 3.89543 108.105 3 107 3H101C99.8954 3 99 3.89543 99 5V11C99 12.1046 99.8954 13 101 13H104.5C104.776 13 105 13.2239 105 13.5C105 13.7761 104.776 14 104.5 14H101C99.3431 14 98 12.6569 98 11V5ZM102.507 6C102.377 5.99823 102.246 6.04703 102.146 6.1464C102.093 6.19949 102.055 6.26154 102.03 6.32769C102.011 6.3814 102 6.43944 102 6.5V10.5C102 10.7761 102.224 11 102.5 11C102.776 11 103 10.7761 103 10.5V7.70706L108.146 12.8535C108.342 13.0488 108.658 13.0488 108.854 12.8535C109.049 12.6582 109.049 12.3417 108.854 12.1464L103.707 7H106.5C106.776 7 107 6.77614 107 6.5C107 6.22386 106.776 6 106.5 6H102.507Z" fill="#F7630C"/>
<path d="M118.235 2.19233C117.236 1.62986 116 2.35243 116 3.49968V12.5C116 13.6472 117.235 14.3698 118.235 13.8073L126.236 9.30735C127.255 8.73391 127.255 7.26609 126.236 6.69262L118.235 2.19233Z" fill="#F7630C"/>
<g filter="url(#filter0_d_48_2063)">
<path d="M133.745 3.06414C133.412 2.87665 133 3.11751 133 3.49993V12.5002C133 12.8826 133.412 13.1235 133.745 12.936L141.745 8.43601C142.085 8.24486 142.085 7.75559 141.745 7.56443L133.745 3.06414ZM132 3.49993C132 2.35268 133.236 1.63011 134.235 2.19257L142.236 6.69286C143.255 7.26633 143.255 8.73415 142.236 9.30759L134.235 13.8076C133.235 14.37 132 13.6474 132 12.5002V3.49993Z" fill="#F7630C"/>
</g>
<path d="M157.003 6V5.99612C157.003 4.89155 156.108 3.99612 155.003 3.99612H150.175L149.065 3.10942C148.976 3.03859 148.866 3 148.753 3H147C145.895 3 145 3.89543 145 5V11C145 12.1046 145.895 13 147 13H156.25C156.917 13 157.503 12.5604 157.69 11.9208L158.859 7.9208C159.14 6.96062 158.42 6 157.419 6H157.003ZM147 4H148.578L149.687 4.8867C149.776 4.95753 149.886 4.99612 149.999 4.99612H155.003C155.555 4.99612 156.003 5.44383 156.003 5.99612V6H148.25C147.583 6 146.997 6.44 146.81 7.08L146 9.85675V5C146 4.44772 146.448 4 147 4ZM147.77 7.36C147.832 7.14667 148.028 7 148.25 7H157.419C157.753 7 157.993 7.32021 157.899 7.64027L156.73 11.6403C156.668 11.8535 156.472 12 156.25 12H147.083C146.75 12 146.51 11.68 146.603 11.36L147.77 7.36Z" fill="#212121"/>
<path d="M162 5V11C162 12.1046 162.895 13 164 13H172C173.105 13 174 12.1046 174 11V6C174 4.89543 173.105 4 172 4H167.175L166.062 3.10957C165.974 3.03864 165.864 3 165.75 3H164C162.895 3 162 3.89543 162 5ZM163 5C163 4.44772 163.448 4 164 4H165.575L166.443 4.6945L165.557 5.49998H163V5ZM167.593 5H172C172.552 5 173 5.44772 173 6V11C173 11.5523 172.552 12 172 12H164C163.448 12 163 11.5523 163 11V6.49998H165.75C165.874 6.49998 165.994 6.45362 166.086 6.36995L167.593 5Z" fill="#212121"/>
<path d="M180.5 2C179.119 2 178 3.11929 178 4.5V11.5C178 12.8807 179.119 14 180.5 14H187.5C188.881 14 190 12.8807 190 11.5V4.5C190 3.11929 188.881 2 187.5 2H180.5ZM186.854 6.85355L183.354 10.3536C183.158 10.5488 182.842 10.5488 182.646 10.3536L181.146 8.85355C180.951 8.65829 180.951 8.34171 181.146 8.14645C181.342 7.95118 181.658 7.95118 181.854 8.14645L183 9.29289L186.146 6.14645C186.342 5.95118 186.658 5.95118 186.854 6.14645C187.049 6.34171 187.049 6.65829 186.854 6.85355Z" fill="#F7630C"/>
<path d="M194 4.5C194 3.11929 195.119 2 196.5 2H203.5C204.881 2 206 3.11929 206 4.5V11.5C206 12.8807 204.881 14 203.5 14H196.5C195.119 14 194 12.8807 194 11.5V4.5ZM196.5 3C195.672 3 195 3.67157 195 4.5V11.5C195 12.3284 195.672 13 196.5 13H203.5C204.328 13 205 12.3284 205 11.5V4.5C205 3.67157 204.328 3 203.5 3H196.5Z" fill="#717171"/>
<path d="M212.5 2C211.119 2 210 3.11929 210 4.5V11.5C210 12.8807 211.119 14 212.5 14H219.5C220.881 14 222 12.8807 222 11.5V4.5C222 3.11929 220.881 2 219.5 2H212.5ZM211.5 4.5C211.5 3.94772 211.948 3.5 212.5 3.5H219.5C220.052 3.5 220.5 3.94772 220.5 4.5V11.5C220.5 12.0523 220.052 12.5 219.5 12.5H212.5C211.948 12.5 211.5 12.0523 211.5 11.5V4.5ZM213.5 5C213.224 5 213 5.22386 213 5.5V10.5C213 10.7761 213.224 11 213.5 11H218.5C218.776 11 219 10.7761 219 10.5V5.5C219 5.22386 218.776 5 218.5 5H213.5Z" fill="#F7630C"/>
</g>
<defs>
<filter id="filter0_d_48_2063" x="124" y="0" width="24" height="24" filterUnits="userSpaceOnUse" color-interpolation-filters="sRGB">
<feFlood flood-opacity="0" result="BackgroundImageFix"/>
<feColorMatrix in="SourceAlpha" type="matrix" values="0 0 0 0 0 0 0 0 0 0 0 0 0 0 0 0 0 0 127 0" result="hardAlpha"/>
<feOffset dy="4"/>
<feGaussianBlur stdDeviation="2"/>
<feComposite in2="hardAlpha" operator="out"/>
<feColorMatrix type="matrix" values="0 0 0 0 0 0 0 0 0 0 0 0 0 0 0 0 0 0 0.25 0"/>
<feBlend mode="normal" in2="BackgroundImageFix" result="effect1_dropShadow_48_2063"/>
<feBlend mode="normal" in="SourceGraphic" in2="effect1_dropShadow_48_2063" result="shape"/>
</filter>
<clipPath id="clip0_48_2063">
<rect width="224" height="16" fill="white"/>
</clipPath>
</defs>
</svg>
