<svg width="48" height="16" viewBox="0 0 48 16" fill="none" xmlns="http://www.w3.org/2000/svg">
<g clip-path="url(#clip0_48_2276)">
<path d="M22.8334 2.83333C23.1095 2.83333 23.3334 3.05719 23.3334 3.33333V8.66667H28.6667C28.9198 8.66667 29.129 8.85477 29.1621 9.09882L29.1667 9.16667C29.1667 12.4804 26.4804 14.8333 23.1667 14.8333C19.853 14.8333 17.1667 12.147 17.1667 8.83333C17.1667 5.51963 19.5196 2.83333 22.8334 2.83333ZM22.3334 3.858L22.1941 3.87382C19.7346 4.1877 18.1667 6.28849 18.1667 8.83333C18.1667 11.5948 20.4053 13.8333 23.1667 13.8333C25.7115 13.8333 27.8123 12.2655 28.1262 9.80594L28.1414 9.66667H22.8334C22.5802 9.66667 22.371 9.47857 22.3379 9.23451L22.3334 9.16667V3.858ZM24.8334 1.16667C28.1471 1.16667 30.8334 3.85296 30.8334 7.16667C30.8334 7.44281 30.6095 7.66667 30.3334 7.66667H24.8334C24.5572 7.66667 24.3334 7.44281 24.3334 7.16667V1.66667C24.3334 1.39052 24.5572 1.16667 24.8334 1.16667ZM25.3334 2.19133V6.66667H29.808L29.7929 6.5274C29.5057 4.27719 27.7228 2.49432 25.4726 2.20715L25.3334 2.19133Z" fill="#212121"/>
<path d="M8 2C11.3137 2 14 4.68629 14 8C14 11.3137 11.3137 14 8 14C4.68629 14 2 11.3137 2 8C2 4.68629 4.68629 2 8 2ZM8 3C5.23858 3 3 5.23858 3 8C3 10.7614 5.23858 13 8 13C10.7614 13 13 10.7614 13 8C13 5.23858 10.7614 3 8 3ZM7.50153 5C7.74699 5 7.95114 5.17688 7.99347 5.41012L8.00153 5.5V8H9.5C9.77614 8 10 8.22386 10 8.5C10 8.74546 9.82312 8.94961 9.58988 8.99194L9.5 9H7.50153C7.25607 9 7.05192 8.82312 7.00958 8.58988L7.00153 8.5V5.5C7.00153 5.22386 7.22538 5 7.50153 5Z" fill="#212121"/>
<path d="M37.6417 4.53937L39.8308 13.6173C39.9492 14.1084 40.6381 14.1341 40.7928 13.6532L42.9639 6.905L43.3546 8.30216C43.415 8.51814 43.6119 8.66748 43.8361 8.66748H46.1652C46.4414 8.66748 46.6652 8.44362 46.6652 8.16748C46.6652 7.89134 46.4414 7.66748 46.1652 7.66748H44.2155L43.4789 5.03369C43.3453 4.55626 42.6732 4.54331 42.5214 5.01523L40.3858 11.6532L38.1503 2.38279C38.0286 1.87819 37.3137 1.87028 37.1809 2.37207L35.7793 7.66748H33.8334C33.5573 7.66748 33.3334 7.89134 33.3334 8.16748C33.3334 8.44362 33.5573 8.66748 33.8334 8.66748H36.1642C36.3911 8.66748 36.5895 8.51473 36.6476 8.29542L37.6417 4.53937Z" fill="#212121"/>
</g>
<defs>
<clipPath id="clip0_48_2276">
<rect width="48" height="16" fill="white"/>
</clipPath>
</defs>
</svg>
