<svg width="480" height="20" viewBox="0 0 480 20" fill="none" xmlns="http://www.w3.org/2000/svg">
<g clip-path="url(#clip0_48_1985)">
<g clip-path="url(#clip1_48_1985)">
<path d="M3 6C3 4.34315 4.34315 3 6 3H14C15.6569 3 17 4.34315 17 6V14C17 15.6569 15.6569 17 14 17H6C4.34315 17 3 15.6569 3 14V6ZM6 4C4.89543 4 4 4.89543 4 6V14C4 15.1046 4.89543 16 6 16H14C15.1046 16 16 15.1046 16 14V6C16 4.89543 15.1046 4 14 4H6Z" fill="#717171"/>
</g>
<g clip-path="url(#clip2_48_1985)">
<path d="M26 3C24.3431 3 23 4.34315 23 6V14C23 15.6569 24.3431 17 26 17H34C35.6569 17 37 15.6569 37 14V6C37 4.34315 35.6569 3 34 3H26ZM33.8536 7.85355L28.8536 12.8536C28.6583 13.0488 28.3417 13.0488 28.1464 12.8536L26.1464 10.8536C25.9512 10.6583 25.9512 10.3417 26.1464 10.1464C26.3417 9.95118 26.6583 9.95118 26.8536 10.1464L28.5 11.7929L33.1464 7.14645C33.3417 6.95118 33.6583 6.95118 33.8536 7.14645C34.0488 7.34171 34.0488 7.65829 33.8536 7.85355Z" fill="#F7630C"/>
</g>
<rect x="41.5" y="5.5" width="17" height="9" rx="1.5" stroke="#212121"/>
<path d="M52.1098 9.23483C52.2563 9.08839 52.4937 9.08839 52.6402 9.23483L54 10.5947L55.3598 9.23483C55.5063 9.08839 55.7437 9.08839 55.8902 9.23483C56.0366 9.38128 56.0366 9.61872 55.8902 9.76517L54.2652 11.3902C54.1187 11.5366 53.8813 11.5366 53.7348 11.3902L52.1098 9.76517C51.9634 9.61872 51.9634 9.38128 52.1098 9.23483Z" fill="#212121"/>
<g clip-path="url(#clip3_48_1985)">
<path d="M72.8536 9.85355C73.0488 9.65829 73.0488 9.34171 72.8536 9.14645C72.6583 8.95118 72.3417 8.95118 72.1464 9.14645L69 12.2929L67.8536 11.1464C67.6583 10.9512 67.3417 10.9512 67.1464 11.1464C66.9512 11.3417 66.9512 11.6583 67.1464 11.8536L68.6464 13.3536C68.8417 13.5488 69.1583 13.5488 69.3536 13.3536L72.8536 9.85355ZM68.5 2C67.8469 2 67.2913 2.4174 67.0854 3H65.5C64.6716 3 64 3.67157 64 4.5V16.5C64 17.3284 64.6716 18 65.5 18H74.5C75.3284 18 76 17.3284 76 16.5V4.5C76 3.67157 75.3284 3 74.5 3H72.9146C72.7087 2.4174 72.1531 2 71.5 2H68.5ZM68 3.5C68 3.22386 68.2239 3 68.5 3H71.5C71.7761 3 72 3.22386 72 3.5C72 3.77614 71.7761 4 71.5 4H68.5C68.2239 4 68 3.77614 68 3.5ZM65.5 4H67.0854C67.2913 4.5826 67.8469 5 68.5 5H71.5C72.1531 5 72.7087 4.5826 72.9146 4H74.5C74.7761 4 75 4.22386 75 4.5V16.5C75 16.7761 74.7761 17 74.5 17H65.5C65.2239 17 65 16.7761 65 16.5V4.5C65 4.22386 65.2239 4 65.5 4Z" fill="#212121"/>
</g>
<g clip-path="url(#clip4_48_1985)">
<path d="M90 2C94.4183 2 98 5.58172 98 10C98 14.4183 94.4183 18 90 18C85.5817 18 82 14.4183 82 10C82 5.58172 85.5817 2 90 2ZM90 3C86.134 3 83 6.13401 83 10C83 13.866 86.134 17 90 17C93.866 17 97 13.866 97 10C97 6.13401 93.866 3 90 3ZM90 12.5C90.4142 12.5 90.75 12.8358 90.75 13.25C90.75 13.6642 90.4142 14 90 14C89.5858 14 89.25 13.6642 89.25 13.25C89.25 12.8358 89.5858 12.5 90 12.5ZM90 6C90.2455 6 90.4496 6.17688 90.4919 6.41012L90.5 6.5V11C90.5 11.2761 90.2761 11.5 90 11.5C89.7545 11.5 89.5504 11.3231 89.5081 11.0899L89.5 11V6.5C89.5 6.22386 89.7239 6 90 6Z" fill="#212121"/>
</g>
<g clip-path="url(#clip5_48_1985)">
<path d="M107.167 3C107.437 3 107.702 3.0731 107.932 3.21016L108.067 3.3L109.667 4.5H115.5C116.77 4.5 117.819 5.44737 117.979 6.67409L117.995 6.83562L118 7V14.5C118 15.8255 116.968 16.91 115.664 16.9947L115.5 17H104.5C103.175 17 102.09 15.9685 102.005 14.6644L102 14.5V5.5C102 4.17452 103.032 3.08996 104.336 3.00532L104.5 3H107.167ZM108.158 7.03449C107.91 7.2946 107.578 7.45592 107.224 7.49219L107.071 7.5L103 7.499V14.5C103 15.2797 103.595 15.9204 104.356 15.9931L104.5 16H115.5C116.28 16 116.92 15.4051 116.993 14.6445L117 14.5V7C117 6.2203 116.405 5.57955 115.644 5.50687L115.5 5.5H109.617L108.158 7.03449ZM107.167 4H104.5C103.72 4 103.08 4.59489 103.007 5.35554L103 5.5V6.499L107.071 6.5C107.181 6.5 107.287 6.46411 107.373 6.39902L107.433 6.34483L108.694 5.021L107.467 4.1C107.402 4.05132 107.326 4.01941 107.247 4.0065L107.167 4Z" fill="#212121"/>
</g>
<rect x="121.5" y="5.5" width="17" height="9" rx="1.5" stroke="#212121"/>
<path d="M126.573 13.0551H125.932V12.5238H125.917C125.781 12.7244 125.609 12.8793 125.401 12.9887C125.195 13.0954 124.967 13.1488 124.717 13.1488C124.319 13.1488 124.006 13.0421 123.78 12.8285C123.556 12.615 123.444 12.3481 123.444 12.0277C123.444 11.6527 123.561 11.3624 123.795 11.1566C124.03 10.9483 124.358 10.8194 124.78 10.7699L125.932 10.6371V10.3832C125.932 10.0941 125.857 9.878 125.706 9.73477C125.557 9.58894 125.353 9.51602 125.092 9.51602C124.845 9.51602 124.64 9.57201 124.479 9.68399C124.318 9.79337 124.194 9.94701 124.108 10.1449L123.549 9.91446C123.68 9.61238 123.88 9.378 124.151 9.21133C124.424 9.04467 124.75 8.96133 125.127 8.96133C125.594 8.96133 125.95 9.08633 126.198 9.33633C126.448 9.58373 126.573 9.93139 126.573 10.3793V13.0551ZM125.932 11.4301V11.1566L124.823 11.2816C124.575 11.3103 124.393 11.3819 124.276 11.4965C124.159 11.6085 124.1 11.7582 124.1 11.9457C124.1 12.1514 124.168 12.3168 124.303 12.4418C124.439 12.5642 124.616 12.6254 124.834 12.6254C125.163 12.6254 125.427 12.5134 125.627 12.2895C125.831 12.0629 125.932 11.7764 125.932 11.4301ZM128.358 12.5707H128.342V13.0551H127.702V7.13321H128.342V9.66446H128.358C128.506 9.44571 128.696 9.27383 128.928 9.14883C129.16 9.02383 129.423 8.96133 129.717 8.96133C130.259 8.96133 130.682 9.14102 130.987 9.5004C131.292 9.85717 131.444 10.3481 131.444 10.9731C131.444 11.6319 131.284 12.1593 130.963 12.5551C130.643 12.9509 130.195 13.1488 129.62 13.1488C129.341 13.1488 129.094 13.0994 128.877 13.0004C128.664 12.8988 128.491 12.7556 128.358 12.5707ZM128.342 10.8637V11.4223C128.342 11.7478 128.453 12.0251 128.674 12.2543C128.896 12.4809 129.186 12.5941 129.545 12.5941C129.944 12.5941 130.25 12.4522 130.463 12.1684C130.68 11.8845 130.788 11.4952 130.788 11.0004C130.788 10.5238 130.685 10.1579 130.479 9.90274C130.276 9.64493 129.999 9.51602 129.647 9.51602C129.254 9.51602 128.937 9.64493 128.698 9.90274C128.461 10.1579 128.342 10.4783 128.342 10.8637Z" fill="black"/>
<rect x="133" y="7" width="1" height="6" fill="black"/>
<g clip-path="url(#clip6_48_1985)">
<path d="M157.854 2.85355C158.049 2.65829 158.049 2.34171 157.854 2.14645C157.658 1.95118 157.342 1.95118 157.146 2.14645L154.478 4.81475C152.895 3.57957 150.602 3.69014 149.146 5.14646L148.846 5.44646C148.264 6.02832 148.264 6.97171 148.846 7.55357L152.446 11.1536C153.028 11.7354 153.971 11.7354 154.553 11.1536L154.853 10.8536C156.309 9.39737 156.42 7.10518 155.185 5.52191L157.854 2.85355ZM153.846 10.4465C153.655 10.6378 153.345 10.6378 153.153 10.4465L149.553 6.84646C149.362 6.65513 149.362 6.34491 149.553 6.15357L149.853 5.85357C151.039 4.66812 152.961 4.66812 154.146 5.85357C155.332 7.03902 155.332 8.96101 154.146 10.1465L153.846 10.4465ZM147.554 8.84643C146.972 8.26457 146.029 8.26457 145.447 8.84643L145.147 9.14643C143.691 10.6026 143.58 12.8948 144.815 14.4781L142.146 17.1464C141.951 17.3417 141.951 17.6583 142.146 17.8536C142.342 18.0488 142.658 18.0488 142.854 17.8536L145.522 15.1852C147.105 16.4204 149.398 16.3099 150.854 14.8535L151.154 14.5535C151.736 13.9717 151.736 13.0283 151.154 12.4464L147.554 8.84643ZM146.154 9.55354C146.345 9.3622 146.655 9.3622 146.847 9.55354L150.447 13.1535C150.638 13.3449 150.638 13.6551 150.447 13.8464L150.147 14.1464C148.961 15.3319 147.039 15.3319 145.854 14.1464C144.668 12.961 144.668 11.039 145.854 9.85354L146.154 9.55354Z" fill="#212121"/>
</g>
<g clip-path="url(#clip7_48_1985)">
<path d="M171.5 9C171.5 9.65311 171.083 10.2087 170.5 10.4146V12.5C170.5 12.7761 170.276 13 170 13C169.724 13 169.5 12.7761 169.5 12.5V10.4146C168.917 10.2087 168.5 9.65311 168.5 9C168.5 8.17157 169.172 7.5 170 7.5C170.828 7.5 171.5 8.17157 171.5 9ZM170.277 2.08397C170.109 1.97201 169.891 1.97201 169.723 2.08397C167.784 3.3761 165.688 4.1823 163.429 4.50503C163.183 4.54021 163 4.75117 163 5V9.5C163 13.3913 165.307 16.2307 169.821 17.9667C169.936 18.0111 170.064 18.0111 170.179 17.9667C174.693 16.2307 177 13.3913 177 9.5V5C177 4.75117 176.817 4.54021 176.571 4.50503C174.312 4.1823 172.216 3.3761 170.277 2.08397ZM164 5.42787C165.985 5.09055 167.853 4.39606 169.599 3.34583L170 3.09715L170.401 3.34583C172.147 4.39606 174.015 5.09055 176 5.42787V9.5C176 12.892 174.032 15.3634 170 16.9632C165.968 15.3634 164 12.892 164 9.5V5.42787Z" fill="#212121"/>
</g>
<g clip-path="url(#clip8_48_1985)">
<path d="M191.096 2.00519C190.027 2.07747 189.163 2.89638 189.021 3.94469L189.014 4.001L186.502 4.0015L186.357 4.00837C185.597 4.08106 185.002 4.72181 185.002 5.5015L185.001 7.766L184.944 7.77204C183.846 7.92103 183 8.86242 183 10.0015L183.005 10.1556C183.077 11.2245 183.896 12.0887 184.945 12.231L185.001 12.236L185.002 14.5016L185.009 14.6461C185.081 15.4066 185.722 16.0015 186.502 16.0015L188.516 16.001L188.522 16.0565C188.671 17.1535 189.613 18 190.752 18L190.906 17.9948C191.975 17.9225 192.839 17.1036 192.981 16.0553L192.986 16.001L195.502 16.0015C196.33 16.0015 197.002 15.3299 197.002 14.5015L197.001 11.2486L195.25 11.25L195.127 11.2446C194.502 11.1934 194 10.6521 194 10L194.005 9.87667C194.057 9.25154 194.598 8.75 195.25 8.75L197.001 8.7486L197.002 5.50164L196.995 5.35716C196.922 4.59639 196.281 4.0015 195.502 4.0015L193.485 4.001L193.479 3.94469C193.33 2.84646 192.389 2 191.25 2L191.096 2.00519ZM191.25 3C191.94 3 192.5 3.55964 192.5 4.25V5.0009L195.502 5.0015L195.592 5.00956C195.825 5.0519 196.002 5.25604 196.002 5.5015L196.001 7.749L195.25 7.75C194.076 7.75 193.102 8.65244 193.007 9.81602L193 9.97981C193 11.174 193.902 12.1481 195.066 12.2426L195.23 12.2496L196.001 12.248L196.002 14.5016C196.002 14.7776 195.778 15.0015 195.502 15.0015L191.999 15.0009L192.002 15.7515C192.002 16.4404 191.442 17 190.752 17C190.061 17 189.502 16.4404 189.502 15.75L189.499 15.0009L186.502 15.0015C186.226 15.0015 186.002 14.7776 186.002 14.5015L186.001 11.25L185.249 11.2515C184.56 11.2515 184 10.6919 184 10.0015C184 9.31115 184.56 8.7515 185.25 8.7515L186.001 8.75L186.002 5.50164C186.002 5.22536 186.226 5.0015 186.502 5.0015L190 5.00092V4.25C190 3.55964 190.56 3 191.25 3Z" fill="#212121"/>
</g>
<g clip-path="url(#clip9_48_1985)">
<path d="M207.44 3.03424L207.244 4.04655C207.081 4.89248 206.206 5.3975 205.391 5.1164L204.414 4.77909C204.188 5.07648 203.998 5.40269 203.851 5.75111L204.633 6.42988C205.284 6.99471 205.284 8.0048 204.633 8.56963L203.851 9.24853C203.998 9.59694 204.188 9.92314 204.414 10.2205L205.391 9.88311C206.206 9.60201 207.081 10.107 207.244 10.953L207.44 11.9658C207.623 11.9884 207.809 12 207.999 12C208.191 12 208.38 11.988 208.565 11.9647L208.761 10.953C208.925 10.107 209.8 9.60201 210.614 9.88311L211.585 10.2183C211.812 9.92001 212.002 9.59281 212.149 9.24332L211.373 8.56963C210.722 8.00481 210.722 6.99471 211.373 6.42988L212.149 5.75633C212.002 5.40682 211.812 5.0796 211.585 4.78133L210.614 5.1164C209.8 5.3975 208.925 4.89247 208.761 4.04655L208.565 3.03528C208.38 3.01201 208.191 3 207.999 3C207.809 3 207.623 3.01165 207.44 3.03424ZM206.918 2.1062C207.268 2.03648 207.629 2 207.999 2C208.371 2 208.736 2.03714 209.089 2.10808C209.287 2.14806 209.442 2.30414 209.481 2.50321L209.743 3.85644C209.791 4.10525 210.048 4.25379 210.288 4.17111L211.588 3.7225C211.779 3.65638 211.992 3.71246 212.126 3.86451C212.604 4.40694 212.977 5.04485 213.213 5.74643C213.278 5.9385 213.22 6.15054 213.067 6.28336L212.028 7.18508C211.837 7.35121 211.837 7.6483 212.028 7.81443L213.067 8.71626C213.22 8.84907 213.278 9.0611 213.213 9.25315C212.978 9.95472 212.604 10.5926 212.126 11.1351C211.992 11.2872 211.78 11.3433 211.588 11.2771L210.288 10.8284C210.048 10.7457 209.791 10.8943 209.743 11.1431L209.481 12.4968C209.442 12.6959 209.287 12.852 209.089 12.8919C208.736 12.9629 208.371 13 207.999 13C207.629 13 207.268 12.9635 206.918 12.8938C206.719 12.8541 206.564 12.6979 206.525 12.4985L206.263 11.1431C206.214 10.8943 205.957 10.7457 205.718 10.8284L204.411 11.2793C204.22 11.3454 204.007 11.2894 203.873 11.1375C203.395 10.5961 203.022 9.95943 202.786 9.25922C202.721 9.06704 202.779 8.85472 202.932 8.72177L203.977 7.81443C204.169 7.6483 204.169 7.35121 203.977 7.18508L202.932 6.27785C202.779 6.14489 202.721 5.93256 202.786 5.74037C203.022 5.04015 203.396 4.40351 203.873 3.86213C204.007 3.71023 204.22 3.65424 204.411 3.72033L205.718 4.17111C205.957 4.25379 206.214 4.10525 206.263 3.85644L206.525 2.5015C206.564 2.30212 206.719 2.1459 206.918 2.1062ZM211.689 12.2953C211.498 12.2291 211.282 12.2833 211.163 12.4474C211.023 12.641 210.902 12.8496 210.803 13.0704C210.72 13.2554 210.781 13.469 210.934 13.6019L211.573 14.1567C211.782 14.338 211.782 14.662 211.573 14.8433L210.934 15.3981C210.781 15.531 210.72 15.7446 210.803 15.9296C210.902 16.1504 211.023 16.359 211.163 16.5527C211.282 16.7167 211.498 16.7709 211.689 16.7047L212.488 16.4289C212.75 16.3387 213.03 16.5007 213.083 16.7721L213.244 17.6025C213.282 17.8017 213.437 17.9612 213.639 17.9818C213.757 17.9938 213.877 18 213.998 18C214.12 18 214.24 17.9938 214.358 17.9818C214.56 17.9612 214.714 17.8017 214.753 17.6025L214.914 16.7721C214.966 16.5007 215.247 16.3387 215.508 16.4289L216.308 16.7048C216.499 16.7709 216.715 16.7167 216.834 16.5527C216.974 16.359 217.095 16.1504 217.194 15.9297C217.277 15.7447 217.216 15.531 217.063 15.3982L216.424 14.8433C216.215 14.662 216.215 14.338 216.424 14.1567L217.063 13.6018C217.216 13.469 217.277 13.2553 217.194 13.0703C217.095 12.8496 216.974 12.641 216.834 12.4473C216.715 12.2833 216.499 12.2291 216.308 12.2952L215.508 12.5711C215.247 12.6613 214.966 12.4993 214.914 12.2279L214.753 11.3975C214.714 11.1983 214.56 11.0388 214.358 11.0182C214.24 11.0062 214.12 11 213.998 11C213.877 11 213.757 11.0062 213.639 11.0182C213.437 11.0388 213.282 11.1983 213.244 11.3975L213.083 12.2279C213.03 12.4993 212.75 12.6613 212.488 12.5711L211.689 12.2953ZM214 15.4999C213.447 15.4999 213 15.0522 213 14.5C213 13.9477 213.447 13.5 214 13.5C214.552 13.5 215 13.9477 215 14.5C215 15.0522 214.552 15.4999 214 15.4999ZM207 7.49994C207 6.94771 207.448 6.5 208 6.5C208.552 6.5 209 6.94771 209 7.49994C209 8.05218 208.552 8.49988 208 8.49988C207.448 8.49988 207 8.05218 207 7.49994ZM208 5.5C206.895 5.5 206 6.39539 206 7.49994C206 8.6045 206.895 9.49988 208 9.49988C209.105 9.49988 210 8.6045 210 7.49994C210 6.39539 209.105 5.5 208 5.5Z" fill="#212121"/>
</g>
<g clip-path="url(#clip10_48_1985)">
<mask id="mask0_48_1985" style="mask-type:luminance" maskUnits="userSpaceOnUse" x="222" y="2" width="16" height="16">
<path d="M222 2H238V18H222V2Z" fill="white"/>
</mask>
<g mask="url(#mask0_48_1985)">
<path d="M235.441 2.442C236.009 1.967 236.861 1.802 237.509 2.39C237.804 2.658 237.974 3.001 237.989 3.387C238.002 3.759 237.869 4.119 237.661 4.443L237.653 4.455L236.329 6.394C234.204 9.50756 231.717 12.3587 228.922 14.888L228.251 14.147C230.988 11.6704 233.422 8.87864 235.503 5.83L236.823 3.897C236.956 3.689 236.993 3.53 236.989 3.423C236.986 3.329 236.95 3.233 236.837 3.13C236.668 2.977 236.392 2.95 236.082 3.21L236.077 3.214L234.543 4.471C231.602 6.87933 228.972 9.64348 226.713 12.7L225.909 12.106C228.217 8.98269 230.905 6.15808 233.909 3.697L235.441 2.442Z" fill="#212121"/>
<path d="M224.902 12.504C225.405 12.1654 226 11.9895 226.606 12C227.043 12.03 227.636 12.208 228.129 12.648C228.637 13.104 229 13.808 229 14.806C229 16.162 228.09 16.972 227.146 17.416C226.206 17.858 225.128 17.999 224.494 17.999C223.818 17.999 222.792 17.833 222.348 17.692C222.263 17.6648 222.186 17.6153 222.127 17.5486C222.067 17.4819 222.027 17.4004 222.009 17.3127C221.992 17.2249 221.999 17.1342 222.028 17.0498C222.058 16.9654 222.11 16.8906 222.178 16.833C222.378 16.665 222.568 16.51 222.733 16.376L223.005 16.153C223.223 15.972 223.368 15.839 223.476 15.71C223.662 15.49 223.774 15.24 223.856 14.618C223.866 13.594 224.313 12.912 224.902 12.504ZM225.472 13.325C225.142 13.553 224.856 13.942 224.856 14.652C224.856 14.673 224.855 14.6941 224.852 14.715C224.759 15.45 224.606 15.921 224.242 16.355C224.057 16.5652 223.854 16.7584 223.634 16.932C223.934 16.972 224.245 17 224.494 17C225.022 17 225.947 16.876 226.72 16.513C227.488 16.152 228 15.615 228 14.807C228 14.073 227.744 13.647 227.462 13.394C227.207 13.1698 226.888 13.0319 226.55 13C226.167 13.0008 225.792 13.1138 225.472 13.325Z" fill="#212121"/>
</g>
</g>
<g clip-path="url(#clip11_48_1985)">
<path d="M252.967 3.6795C253.066 3.42177 252.937 3.13247 252.68 3.03334C252.422 2.93421 252.132 3.06279 252.033 3.32052L247.033 16.3205C246.934 16.5783 247.063 16.8676 247.321 16.9667C247.578 17.0658 247.868 16.9372 247.967 16.6795L252.967 3.6795ZM245.825 6.12038C246.035 6.30009 246.059 6.61574 245.88 6.8254L243.159 10L245.88 13.1746C246.059 13.3843 246.035 13.6999 245.825 13.8796C245.616 14.0593 245.3 14.0351 245.12 13.8254L242.12 10.3254C241.96 10.1382 241.96 9.86186 242.12 9.67461L245.12 6.17461C245.3 5.96495 245.616 5.94067 245.825 6.12038ZM254.175 14.3796C253.965 14.1999 253.941 13.8843 254.12 13.6746L256.841 10.5L254.12 7.32539C253.941 7.11572 253.965 6.80007 254.175 6.62036C254.384 6.44065 254.7 6.46493 254.88 6.6746L257.88 10.1746C258.04 10.3618 258.04 10.6381 257.88 10.8254L254.88 14.3254C254.7 14.535 254.384 14.5593 254.175 14.3796Z" fill="#212121"/>
</g>
<g clip-path="url(#clip12_48_1985)">
<path d="M270 2C268.343 2 266.999 3.34344 266.999 5.00066C266.999 6.48754 268.081 7.72183 269.5 7.95985V9.5H266.5C265.672 9.5 265 10.1716 265 11V12.0416C263.581 12.2799 262.5 13.514 262.5 15.0007C262.5 16.6579 263.843 18.0013 265.501 18.0013C267.158 18.0013 268.501 16.6579 268.501 15.0007C268.501 13.5136 267.42 12.2791 266 12.0414V11C266 10.7239 266.224 10.5 266.5 10.5H273.5C273.776 10.5 274 10.7239 274 11V12.0416C272.581 12.2799 271.5 13.514 271.5 15.0007C271.5 16.6579 272.843 18.0013 274.501 18.0013C276.158 18.0013 277.501 16.6579 277.501 15.0007C277.501 13.5136 276.42 12.2791 275 12.0414V11C275 10.1716 274.328 9.5 273.5 9.5H270.5V7.95983C271.919 7.72176 273.001 6.48749 273.001 5.00066C273.001 3.34344 271.657 2 270 2ZM267.999 5.00066C267.999 3.89572 268.895 3 270 3C271.105 3 272.001 3.89572 272.001 5.00066C272.001 6.10559 271.105 7.00131 270 7.00131C268.895 7.00131 267.999 6.10559 267.999 5.00066ZM263.5 15.0007C263.5 13.8957 264.396 13 265.501 13C266.606 13 267.501 13.8957 267.501 15.0007C267.501 16.1056 266.606 17.0013 265.501 17.0013C264.396 17.0013 263.5 16.1056 263.5 15.0007ZM274.501 13C275.606 13 276.501 13.8957 276.501 15.0007C276.501 16.1056 275.606 17.0013 274.501 17.0013C273.396 17.0013 272.5 16.1056 272.5 15.0007C272.5 13.8957 273.396 13 274.501 13Z" fill="#212121"/>
</g>
<g clip-path="url(#clip13_48_1985)">
<path d="M282 12C282 11.6024 282.081 11.2089 282.237 10.8435L284.651 5.21215C284.966 4.47679 285.689 4 286.489 4H293.593C294.335 4 295.023 4.41071 295.356 5.08776C295.927 6.25021 296.989 8.51197 297.81 10.8618C297.939 11.2308 298 11.6163 298 12V14C298 15.1046 297.105 16 296 16H284C282.895 16 282 15.1046 282 14V12ZM293.593 5H286.489C286.089 5 285.728 5.2384 285.57 5.60608L283.676 10.0262C283.781 10.009 283.89 10 284 10H296C296.154 10 296.303 10.0173 296.447 10.05C295.729 8.18365 294.928 6.48449 294.459 5.52894C294.299 5.20511 293.966 5 293.593 5ZM296 15C296.552 15 297 14.5523 297 14V12C297 11.4477 296.552 11 296 11H284C283.448 11 283 11.4477 283 12V14C283 14.5523 283.448 15 284 15H296ZM294.75 13.75C295.164 13.75 295.5 13.4142 295.5 13C295.5 12.5858 295.164 12.25 294.75 12.25C294.336 12.25 294 12.5858 294 13C294 13.4142 294.336 13.75 294.75 13.75Z" fill="#212121"/>
</g>
<g clip-path="url(#clip14_48_1985)">
<path d="M307.5 13H312.5C312.776 13 313 13.2239 313 13.5C313 13.7455 312.823 13.9496 312.59 13.9919L312.5 14H307.5C307.224 14 307 13.7761 307 13.5C307 13.2545 307.177 13.0504 307.41 13.0081L307.5 13H312.5H307.5ZM305.5 9H314.5C314.776 9 315 9.22386 315 9.5C315 9.74546 314.823 9.94961 314.59 9.99194L314.5 10H305.5C305.224 10 305 9.77614 305 9.5C305 9.25454 305.177 9.05039 305.41 9.00806L305.5 9H314.5H305.5ZM303.5 5H316.5C316.776 5 317 5.22386 317 5.5C317 5.74546 316.823 5.94961 316.59 5.99194L316.5 6H303.5C303.224 6 303 5.77614 303 5.5C303 5.25454 303.177 5.05039 303.41 5.00806L303.5 5H316.5H303.5Z" fill="#212121"/>
</g>
<g clip-path="url(#clip15_48_1985)">
<path d="M327.5 2C327.224 2 327 2.22386 327 2.5C327 2.77614 327.224 3 327.5 3H331.5C331.776 3 332 2.77614 332 2.5C332 2.22386 331.776 2 331.5 2H327.5ZM335.156 3.92899C334.961 3.73373 334.644 3.73373 334.449 3.92899C334.254 4.12426 334.254 4.44084 334.449 4.6361L335.863 6.05031C336.059 6.24558 336.375 6.24558 336.571 6.05031C336.766 5.85505 336.766 5.53847 336.571 5.34321L335.156 3.92899ZM329.5 6C329.224 6 329 6.22386 329 6.5V11.5C329 11.7761 329.224 12 329.5 12C329.776 12 330 11.7761 330 11.5V6.5C330 6.22386 329.776 6 329.5 6ZM329.5 18C333.366 18 336.5 14.866 336.5 11C336.5 7.13401 333.366 4 329.5 4C325.634 4 322.5 7.13401 322.5 11C322.5 14.866 325.634 18 329.5 18ZM329.5 17C326.186 17 323.5 14.3137 323.5 11C323.5 7.68629 326.186 5 329.5 5C332.814 5 335.5 7.68629 335.5 11C335.5 14.3137 332.814 17 329.5 17Z" fill="#212121"/>
</g>
<g clip-path="url(#clip16_48_1985)">
<path d="M349.723 2.08397C349.891 1.97201 350.109 1.97201 350.277 2.08397C352.216 3.3761 354.312 4.1823 356.571 4.50503C356.817 4.54021 357 4.75117 357 5V9.5C357 13.3913 354.693 16.2307 350.179 17.9667C350.064 18.0111 349.936 18.0111 349.821 17.9667C345.307 16.2307 343 13.3913 343 9.5V5C343 4.75117 343.183 4.54021 343.429 4.50503C345.688 4.1823 347.784 3.3761 349.723 2.08397ZM349.599 3.34583C347.853 4.39606 345.985 5.09055 344 5.42787V9.5C344 12.892 345.968 15.3634 350 16.9632C354.032 15.3634 356 12.892 356 9.5V5.42787C354.015 5.09055 352.147 4.39606 350.401 3.34583L350 3.09715L349.599 3.34583Z" fill="#212121"/>
</g>
<g clip-path="url(#clip17_48_1985)">
<path d="M370 12C370.552 12 371 11.5523 371 11C371 10.4477 370.552 10 370 10C369.448 10 369 10.4477 369 11C369 11.5523 369.448 12 370 12ZM367 9.5C367 8.67157 367.672 8 368.5 8H371.5C372.328 8 373 8.67157 373 9.5V16.5C373 17.3284 372.328 18 371.5 18H368.5C367.672 18 367 17.3284 367 16.5V9.5ZM368.5 9C368.224 9 368 9.22386 368 9.5V16.5C368 16.7761 368.224 17 368.5 17H371.5C371.776 17 372 16.7761 372 16.5V9.5C372 9.22386 371.776 9 371.5 9H368.5Z" fill="#212121"/>
<g clip-path="url(#clip18_48_1985)">
<path d="M364.698 4.25412L367 6.29289C367.195 6.48816 367.195 6.80474 367 7C366.826 7.17357 366.557 7.19285 366.362 7.05785L366.293 7L363.991 4.96123C363.795 4.76597 363.795 4.44938 363.991 4.25412C364.164 4.08055 364.434 4.06127 364.629 4.19627L364.698 4.25412L367 6.29289L364.698 4.25412ZM370.001 1.27925C370.247 1.27929 370.451 1.45621 370.493 1.68947L370.501 1.77934V5.5C370.501 5.77614 370.277 5.99996 370.001 5.99991C369.756 5.99986 369.551 5.82294 369.509 5.58969L369.501 5.49981L369.501 1.77915C369.501 1.50301 369.725 1.27919 370.001 1.27925ZM376.011 4.25412C376.185 4.42769 376.204 4.69711 376.069 4.89198L376.011 4.96123L373.707 7C373.512 7.19526 373.195 7.19526 373 7C372.826 6.82643 372.807 6.55701 372.942 6.36214L373 6.29289L375.304 4.25412C375.5 4.05886 375.816 4.05886 376.011 4.25412Z" fill="#212121"/>
</g>
</g>
<g clip-path="url(#clip19_48_1985)">
<path d="M394 7C394.552 7 395 6.55228 395 6C395 5.44772 394.552 5 394 5C393.448 5 393 5.44772 393 6C393 6.55228 393.448 7 394 7ZM391.129 2.00004C390.595 1.99654 390.082 2.20681 389.704 2.58399L383.022 9.24852C382.239 10.0293 382.239 11.297 383.02 12.0788L387.969 17.0271C388.75 17.8082 390.016 17.8082 390.797 17.0271L397.428 10.3963C397.804 10.0205 398.015 9.51063 398.014 8.97917L398.006 4.02911C398.005 2.93081 397.118 2.0393 396.02 2.0321L391.129 2.00004ZM390.41 3.29199C390.599 3.1034 390.856 2.99827 391.123 3.00002L396.013 3.03208C396.562 3.03568 397.006 3.48143 397.006 4.03058L397.014 8.98065C397.014 9.24637 396.909 9.50133 396.721 9.68923L390.09 16.32C389.7 16.7106 389.066 16.7106 388.676 16.32L383.727 11.3716C383.337 10.9808 383.337 10.3469 383.728 9.95653L390.41 3.29199Z" fill="#212121"/>
</g>
<path d="M407.5 5C407.224 5 407 5.22386 407 5.5C407 5.77614 407.224 6 407.5 6H412.5C412.776 6 413 5.77614 413 5.5C413 5.22386 412.776 5 412.5 5H407.5ZM407 12.5C407 12.2239 407.224 12 407.5 12H412.5C412.776 12 413 12.2239 413 12.5C413 12.7761 412.776 13 412.5 13H407.5C407.224 13 407 12.7761 407 12.5ZM407.5 14C407.224 14 407 14.2239 407 14.5C407 14.7761 407.224 15 407.5 15H412.5C412.776 15 413 14.7761 413 14.5C413 14.2239 412.776 14 412.5 14H407.5ZM405 4.5C405 3.11929 406.119 2 407.5 2H412.5C413.881 2 415 3.11929 415 4.5V15.5C415 16.8807 413.881 18 412.5 18H407.5C406.119 18 405 16.8807 405 15.5V4.5ZM407.5 3C406.672 3 406 3.67157 406 4.5V15.5C406 16.3284 406.672 17 407.5 17H412.5C413.328 17 414 16.3284 414 15.5V4.5C414 3.67157 413.328 3 412.5 3H407.5Z" fill="#212121"/>
<g clip-path="url(#clip20_48_1985)">
<path d="M426 3C424.343 3 423 4.34315 423 6V14C423 15.6569 424.343 17 426 17H434C435.657 17 437 15.6569 437 14V6C437 4.34315 435.657 3 434 3H426ZM424 6C424 4.89543 424.895 4 426 4H434C435.105 4 436 4.89543 436 6V14C436 15.1046 435.105 16 434 16H426C424.895 16 424 15.1046 424 14V6ZM426.5 6C426.224 6 426 6.22386 426 6.5C426 6.77614 426.224 7 426.5 7C430.09 7 433 9.91015 433 13.5C433 13.7761 433.224 14 433.5 14C433.776 14 434 13.7761 434 13.5C434 9.35786 430.642 6 426.5 6ZM426 9.5C426 9.22386 426.224 9 426.5 9C428.985 9 431 11.0147 431 13.5C431 13.7761 430.776 14 430.5 14C430.224 14 430 13.7761 430 13.5C430 11.567 428.433 10 426.5 10C426.224 10 426 9.77614 426 9.5ZM427 14C427.552 14 428 13.5523 428 13C428 12.4477 427.552 12 427 12C426.448 12 426 12.4477 426 13C426 13.5523 426.448 14 427 14Z" fill="#212121"/>
</g>
<g clip-path="url(#clip21_48_1985)">
<path d="M457.167 8.00001L457.167 7.50001L456.667 7.50001L452.5 7.5L452 7.5V8L452 11.6667C452 12.4229 451.811 12.8983 451.521 13.1881C451.232 13.4779 450.756 13.6667 450 13.6667C449.244 13.6667 448.768 13.4779 448.479 13.1881C448.189 12.8983 448 12.4229 448 11.6667V8V7.5H447.5H443.333H442.833L442.833 8L442.833 11.2778C442.833 13.3846 443.745 14.9606 445.115 15.9962C446.47 17.0199 448.25 17.5 450 17.5C451.75 17.5 453.53 17.0199 454.885 15.9962C456.255 14.9606 457.167 13.3846 457.167 11.2778L457.167 8.00001Z" stroke="#212121"/>
<path d="M456.667 7.50001H457.167V7.00001V4.83336C457.167 4.09698 456.57 3.50003 455.833 3.50003H453.333C452.597 3.50003 452 4.09698 452 4.83336V7.00001V7.50001H452.5H456.667Z" stroke="#212121"/>
<path d="M447.5 7.49999H448V6.99999V4.83333C448 4.09695 447.403 3.5 446.667 3.5H444.167C443.43 3.5 442.833 4.09695 442.833 4.83333V6.99999V7.49999H443.333H447.5Z" stroke="#212121"/>
</g>
<g clip-path="url(#clip22_48_1985)">
<path d="M470.497 16.8028L476.741 10.4994C478.425 8.78856 478.42 6.02549 476.724 4.31249C475.061 2.63292 472.396 2.5895 470.698 4.19086C470.661 4.22539 470.625 4.26068 470.589 4.29673L469.993 4.90026L469.388 4.28963C469.355 4.25616 469.322 4.22333 469.288 4.19116C467.586 2.57726 464.917 2.60193 463.261 4.2739C461.573 5.9792 461.581 8.75004 463.277 10.4627L469.554 16.8028C469.814 17.0657 470.236 17.0657 470.497 16.8028ZM471.3 5.00029C472.596 3.69135 474.702 3.69204 476.013 5.01604C477.325 6.34123 477.327 8.47734 476.029 9.79681L476.028 9.79783L470.025 15.8577L463.987 9.75919C462.674 8.43263 462.673 6.28953 463.972 4.97746C465.265 3.67106 467.37 3.67208 468.678 4.99319L469.638 5.96306C469.834 6.16082 470.153 6.16067 470.349 5.96272L471.3 5.00029Z" fill="#212121"/>
</g>
</g>
<defs>
<clipPath id="clip0_48_1985">
<rect width="480" height="20" fill="white"/>
</clipPath>
<clipPath id="clip1_48_1985">
<rect width="20" height="20" fill="white"/>
</clipPath>
<clipPath id="clip2_48_1985">
<rect width="20" height="20" fill="white" transform="translate(20)"/>
</clipPath>
<clipPath id="clip3_48_1985">
<rect width="20" height="20" fill="white" transform="translate(60)"/>
</clipPath>
<clipPath id="clip4_48_1985">
<rect width="20" height="20" fill="white" transform="translate(80)"/>
</clipPath>
<clipPath id="clip5_48_1985">
<rect width="20" height="20" fill="white" transform="translate(100)"/>
</clipPath>
<clipPath id="clip6_48_1985">
<rect width="20" height="20" fill="white" transform="translate(140)"/>
</clipPath>
<clipPath id="clip7_48_1985">
<rect width="20" height="20" fill="white" transform="translate(160)"/>
</clipPath>
<clipPath id="clip8_48_1985">
<rect width="20" height="20" fill="white" transform="translate(180)"/>
</clipPath>
<clipPath id="clip9_48_1985">
<rect width="20" height="20" fill="white" transform="translate(200)"/>
</clipPath>
<clipPath id="clip10_48_1985">
<rect width="16" height="16" fill="white" transform="translate(222 2)"/>
</clipPath>
<clipPath id="clip11_48_1985">
<rect width="20" height="20" fill="white" transform="translate(240)"/>
</clipPath>
<clipPath id="clip12_48_1985">
<rect width="20" height="20" fill="white" transform="translate(260)"/>
</clipPath>
<clipPath id="clip13_48_1985">
<rect width="20" height="20" fill="white" transform="translate(280)"/>
</clipPath>
<clipPath id="clip14_48_1985">
<rect width="20" height="20" fill="white" transform="translate(300)"/>
</clipPath>
<clipPath id="clip15_48_1985">
<rect width="20" height="20" fill="white" transform="translate(320)"/>
</clipPath>
<clipPath id="clip16_48_1985">
<rect width="20" height="20" fill="white" transform="translate(340)"/>
</clipPath>
<clipPath id="clip17_48_1985">
<rect width="20" height="20" fill="white" transform="translate(360)"/>
</clipPath>
<clipPath id="clip18_48_1985">
<rect width="16" height="16" fill="white" transform="translate(370 -6) rotate(45)"/>
</clipPath>
<clipPath id="clip19_48_1985">
<rect width="20" height="20" fill="white" transform="translate(380)"/>
</clipPath>
<clipPath id="clip20_48_1985">
<rect width="20" height="20" fill="white" transform="translate(420)"/>
</clipPath>
<clipPath id="clip21_48_1985">
<rect width="20" height="20" fill="white" transform="translate(440)"/>
</clipPath>
<clipPath id="clip22_48_1985">
<rect width="20" height="20" fill="white" transform="translate(460)"/>
</clipPath>
</defs>
</svg>
