<svg width="336" height="16" viewBox="0 0 336 16" fill="none" xmlns="http://www.w3.org/2000/svg">
<g clip-path="url(#clip0_48_2238)">
<path d="M281.309 10.016C280.539 10.6318 279.563 11 278.5 11C276.015 11 274 8.98531 274 6.50002C274 4.01473 276.015 2 278.5 2C280.985 2 283 4.01473 283 6.50002C283 7.56252 282.632 8.53901 282.016 9.30885L285.854 13.1464C286.049 13.3417 286.049 13.6583 285.854 13.8536C285.658 14.0488 285.342 14.0488 285.146 13.8536L281.309 10.016ZM282 6.50002C282 4.56701 280.433 3 278.5 3C276.567 3 275 4.56701 275 6.50002C275 8.43302 276.567 10 278.5 10C280.433 10 282 8.43302 282 6.50002Z" fill="#212121"/>
<path d="M195.5 7.49999C195.224 7.49999 195 7.72385 195 7.99999C195 8.27613 195.224 8.49999 195.5 8.49999L205.197 8.49999L201.166 12.1283C200.96 12.3131 200.944 12.6292 201.128 12.8345C201.313 13.0397 201.629 13.0564 201.834 12.8716L206.834 8.37164C206.94 8.27681 207 8.14173 207 7.99999C207 7.85825 206.94 7.72316 206.834 7.62834L201.834 3.12834C201.629 2.94361 201.313 2.96025 201.128 3.16551C200.944 3.37076 200.96 3.68691 201.166 3.87164L205.197 7.49999L195.5 7.49999Z" fill="#212121"/>
<path d="M50.5 7.49999C50.2239 7.49999 50 7.72385 50 7.99999C50 8.27613 50.2239 8.49999 50.5 8.49999L60.197 8.49999L56.1655 12.1283C55.9603 12.3131 55.9436 12.6292 56.1284 12.8345C56.3131 13.0397 56.6292 13.0564 56.8345 12.8716L61.8345 8.37164C61.9398 8.27681 62 8.14173 62 7.99999C62 7.85825 61.9398 7.72316 61.8345 7.62834L56.8345 3.12834C56.6292 2.94361 56.3131 2.96025 56.1284 3.16551C55.9436 3.37076 55.9603 3.68691 56.1655 3.87164L60.197 7.49999L50.5 7.49999Z" fill="#212121"/>
<path d="M45.5 8.5C45.7761 8.5 46 8.27614 46 8C46 7.72386 45.7761 7.5 45.5 7.5L35.803 7.5L39.8345 3.87165C40.0397 3.68692 40.0564 3.37078 39.8716 3.16552C39.6869 2.96027 39.3708 2.94363 39.1655 3.12836L34.1655 7.62835C34.0602 7.72317 34 7.85826 34 8C34 8.14174 34.0602 8.27683 34.1655 8.37165L39.1655 12.8716C39.3708 13.0564 39.6869 13.0397 39.8716 12.8345C40.0564 12.6292 40.0397 12.3131 39.8345 12.1283L35.803 8.5L45.5 8.5Z" fill="#212121"/>
<path d="M20.0002 2.99995C19.4479 2.99995 19.0002 3.44767 19.0002 3.99995V12C19.0002 12.5522 19.4479 13 20.0002 13V9.49995C20.0002 8.67153 20.6718 7.99995 21.5002 7.99995H26.5002C27.3286 7.99995 28.0002 8.67153 28.0002 9.49995V13C28.5525 13 29.0002 12.5522 29.0002 12V5.62127C29.0002 5.35606 28.8948 5.1017 28.7073 4.91417L27.086 3.29285C26.8984 3.10531 26.6441 2.99995 26.3789 2.99995H26.0002V4.49995C26.0002 5.32838 25.3286 5.99995 24.5002 5.99995H22.5002C21.6718 5.99995 21.0002 5.32838 21.0002 4.49995V2.99995H20.0002ZM22.0002 2.99995V4.49995C22.0002 4.7761 22.224 4.99995 22.5002 4.99995H24.5002C24.7763 4.99995 25.0002 4.7761 25.0002 4.49995V2.99995H22.0002ZM27.0002 13V9.49995C27.0002 9.22381 26.7763 8.99995 26.5002 8.99995H21.5002C21.224 8.99995 21.0002 9.22381 21.0002 9.49995V13H27.0002ZM18.0002 3.99995C18.0002 2.89538 18.8956 1.99995 20.0002 1.99995H26.3789C26.9093 1.99995 27.418 2.21067 27.7931 2.58574L29.4144 4.20706C29.7895 4.58213 30.0002 5.09084 30.0002 5.62127V12C30.0002 13.1045 29.1048 14 28.0002 14H20.0002C18.8956 14 18.0002 13.1045 18.0002 12V3.99995Z" fill="#212121"/>
<path d="M5 1C3.89543 1 3 1.89543 3 3V13C3 14.1046 3.89543 15 5 15H11C12.1046 15 13 14.1046 13 13V5.41421C13 5.01639 12.842 4.63486 12.5607 4.35355L9.64645 1.43934C9.36514 1.15804 8.98361 1 8.58579 1H5ZM4 3C4 2.44772 4.44772 2 5 2H8V4.5C8 5.32843 8.67157 6 9.5 6H12V13C12 13.5523 11.5523 14 11 14H5C4.44772 14 4 13.5523 4 13V3ZM11.7929 5H9.5C9.22386 5 9 4.77614 9 4.5V2.20711L11.7929 5Z" fill="#212121"/>
<path d="M67 8C67 5.23858 69.2386 3 72 3C73.6351 3 75.087 3.7844 76 4.99946L73.5 5C73.2239 5 73 5.22386 73 5.5C73 5.77614 73.2239 6 73.5 6H76.5C76.7761 6 77 5.77614 77 5.5V4.84295C77.0001 4.83864 77.0001 4.83434 77 4.83003V2.5C77 2.22386 76.7761 2 76.5 2C76.2239 2 76 2.22386 76 2.5V3.52786C74.9388 2.57815 73.5369 2 72 2C68.6863 2 66 4.68629 66 8C66 11.3137 68.6863 14 72 14C75.3137 14 78 11.3137 78 8C78 7.72386 77.7761 7.5 77.5 7.5C77.2239 7.5 77 7.72386 77 8C77 10.7614 74.7614 13 72 13C69.2386 13 67 10.7614 67 8Z" fill="#212121"/>
<path d="M82.5886 2.71569L82.6464 2.64645C82.82 2.47288 83.0894 2.4536 83.2843 2.58859L83.3536 2.64645L88 7.293L92.6464 2.64645C92.8417 2.45118 93.1583 2.45118 93.3536 2.64645C93.5488 2.84171 93.5488 3.15829 93.3536 3.35355L88.707 8L93.3536 12.6464C93.5271 12.82 93.5464 13.0894 93.4114 13.2843L93.3536 13.3536C93.18 13.5271 92.9106 13.5464 92.7157 13.4114L92.6464 13.3536L88 8.707L83.3536 13.3536C83.1583 13.5488 82.8417 13.5488 82.6464 13.3536C82.4512 13.1583 82.4512 12.8417 82.6464 12.6464L87.293 8L82.6464 3.35355C82.4729 3.17999 82.4536 2.91056 82.5886 2.71569L82.6464 2.64645L82.5886 2.71569Z" fill="#212121"/>
<path d="M134 5C133.724 5 133.5 5.22386 133.5 5.5C133.5 5.77614 133.724 6 134 6H138C138.276 6 138.5 5.77614 138.5 5.5C138.5 5.22386 138.276 5 138 5H134ZM134 8C133.724 8 133.5 8.22386 133.5 8.5C133.5 8.77614 133.724 9 134 9H138C138.276 9 138.5 8.77614 138.5 8.5C138.5 8.22386 138.276 8 138 8H134ZM134 11C133.724 11 133.5 11.2239 133.5 11.5C133.5 11.7761 133.724 12 134 12H134.5C134.776 12 135 11.7761 135 11.5C135 11.2239 134.776 11 134.5 11H134ZM133 1C133.276 1 133.5 1.22386 133.5 1.5V2H135.5V1.5C135.5 1.22386 135.724 1 136 1C136.276 1 136.5 1.22386 136.5 1.5V2H138.5V1.5C138.5 1.22386 138.724 1 139 1C139.276 1 139.5 1.22386 139.5 1.5V2C140.328 2 141 2.67157 141 3.5V10.0858C141 10.4836 140.842 10.8651 140.561 11.1464L137.146 14.5607C136.865 14.842 136.484 15 136.086 15H132.5C131.672 15 131 14.3284 131 13.5V3.5C131 2.67157 131.672 2 132.5 2V1.5C132.5 1.22386 132.724 1 133 1ZM139.5 3H132.5C132.224 3 132 3.22386 132 3.5V13.5C132 13.7761 132.224 14 132.5 14H136V11.5C136 10.6716 136.672 10 137.5 10H140V3.5C140 3.22386 139.776 3 139.5 3ZM137 13.2929L139.293 11H137.5C137.224 11 137 11.2239 137 11.5V13.2929Z" fill="#212121"/>
<path d="M103.146 2.14645C103.342 1.95118 103.658 1.95118 103.854 2.14645L106.854 5.14645C107.049 5.34171 107.049 5.65829 106.854 5.85355C106.658 6.04882 106.342 6.04882 106.146 5.85355L104 3.70711V13.5C104 13.7761 103.776 14 103.5 14C103.224 14 103 13.7761 103 13.5V3.70711L100.854 5.85355C100.658 6.04882 100.342 6.04882 100.146 5.85355C99.9512 5.65829 99.9512 5.34171 100.146 5.14645L103.146 2.14645Z" fill="#212121"/>
<path d="M292.5 3C291.119 3 290 4.11929 290 5.5V10.5C290 11.8807 291.119 13 292.5 13H299.5C300.881 13 302 11.8807 302 10.5V5.5C302 4.11929 300.881 3 299.5 3H292.5ZM301 6.5H295V4H299.5C300.328 4 301 4.67157 301 5.5V6.5ZM294 4V12H292.5C291.672 12 291 11.3284 291 10.5V5.5C291 4.67157 291.672 4 292.5 4H294ZM295 7.5H301V10.5C301 11.3284 300.328 12 299.5 12H295V7.5Z" fill="#212121"/>
<path d="M306 5.5C306 4.11929 307.119 3 308.5 3H315.5C316.881 3 318 4.11929 318 5.5V10.5C318 11.8807 316.881 13 315.5 13H308.5C307.119 13 306 11.8807 306 10.5V5.5ZM311 4V12H315.5C316.328 12 317 11.3284 317 10.5V5.5C317 4.67157 316.328 4 315.5 4H311ZM310 4H308.5C307.672 4 307 4.67157 307 5.5V10.5C307 11.3284 307.672 12 308.5 12H310V4Z" fill="#212121"/>
<rect x="313" y="4" width="1" height="8" fill="black"/>
<path d="M322 5.5C322 4.11929 323.119 3 324.5 3H331.5C332.881 3 334 4.11929 334 5.5V10.5C334 11.8807 332.881 13 331.5 13H324.5C323.119 13 322 11.8807 322 10.5V5.5ZM327 4V12H331.5C332.328 12 333 11.3284 333 10.5V5.5C333 4.67157 332.328 4 331.5 4H327ZM326 4H324.5C323.672 4 323 4.67157 323 5.5V10.5C323 11.3284 323.672 12 324.5 12H326V4Z" fill="#212121"/>
<path d="M119.146 13.8536C119.342 14.0488 119.658 14.0488 119.854 13.8536L122.854 10.8536C123.049 10.6583 123.049 10.3417 122.854 10.1464C122.658 9.95118 122.342 9.95118 122.146 10.1464L120 12.2929V2.5C120 2.22386 119.776 2 119.5 2C119.224 2 119 2.22386 119 2.5V12.2929L116.854 10.1464C116.658 9.95118 116.342 9.95118 116.146 10.1464C115.951 10.3417 115.951 10.6583 116.146 10.8536L119.146 13.8536Z" fill="#212121"/>
<path d="M184 3C182.343 3 181 4.34315 181 6C181 6.27614 180.776 6.5 180.5 6.5H180.25C179.007 6.5 178 7.50736 178 8.75C178 9.99264 179.007 11 180.25 11H181.035C181.086 11.3531 181.189 11.6891 181.337 12H180.25C178.455 12 177 10.5449 177 8.75C177 7.029 178.338 5.62043 180.03 5.50733C180.273 3.53062 181.958 2 184 2C186.042 2 187.727 3.53063 187.97 5.50733C189.392 5.60238 190.564 6.61255 190.902 7.95419C190.451 7.52894 189.888 7.22199 189.261 7.08301C188.862 6.72073 188.332 6.5 187.75 6.5H187.5C187.224 6.5 187 6.27614 187 6C187 4.34315 185.657 3 184 3ZM184.5 8C183.119 8 182 9.11929 182 10.5C182 11.8807 183.119 13 184.5 13H185C185.276 13 185.5 12.7761 185.5 12.5C185.5 12.2239 185.276 12 185 12H184.5C183.672 12 183 11.3284 183 10.5C183 9.67157 183.672 9 184.5 9H185C185.276 9 185.5 8.77614 185.5 8.5C185.5 8.22386 185.276 8 185 8H184.5ZM188 8C187.724 8 187.5 8.22386 187.5 8.5C187.5 8.77614 187.724 9 188 9H188.5C189.328 9 190 9.67157 190 10.5C190 11.3284 189.328 12 188.5 12H188C187.724 12 187.5 12.2239 187.5 12.5C187.5 12.7761 187.724 13 188 13H188.5C189.881 13 191 11.8807 191 10.5C191 9.11929 189.881 8 188.5 8H188ZM184 10.5C184 10.2239 184.224 10 184.5 10H188.5C188.776 10 189 10.2239 189 10.5C189 10.7761 188.776 11 188.5 11H184.5C184.224 11 184 10.7761 184 10.5Z" fill="#212121"/>
<path d="M151.194 2.1017C151.524 1.43278 152.478 1.43277 152.808 2.1017L154.329 5.18375L157.73 5.67798C158.469 5.78525 158.763 6.69242 158.229 7.2131L155.768 9.61215L156.349 12.9997C156.475 13.7349 155.703 14.2955 155.043 13.9484L152.001 12.349L148.959 13.9484C148.299 14.2955 147.527 13.7349 147.653 12.9997L148.234 9.61215L145.773 7.2131C145.239 6.69242 145.533 5.78525 146.272 5.67798L149.673 5.18375L151.194 2.1017ZM152.001 2.72596L150.546 5.67346C150.415 5.93909 150.162 6.1232 149.869 6.1658L146.616 6.63845L148.97 8.93276C149.182 9.13952 149.279 9.43742 149.228 9.72938L148.673 12.969L151.582 11.4395C151.844 11.3016 152.158 11.3016 152.42 11.4395L155.329 12.969L154.773 9.72938C154.723 9.43742 154.82 9.13952 155.032 8.93276L157.386 6.63845L154.133 6.1658C153.84 6.1232 153.587 5.93909 153.456 5.67346L152.001 2.72596Z" fill="#212121"/>
<path d="M163.75 3C163.336 3 163 3.33579 163 3.75V5.5C163 5.77614 162.776 6 162.5 6C162.224 6 162 5.77614 162 5.5V3.75C162 2.7835 162.784 2 163.75 2H165.5C165.776 2 166 2.22386 166 2.5C166 2.77614 165.776 3 165.5 3H163.75ZM170 2.5C170 2.22386 170.224 2 170.5 2H172.25C173.216 2 174 2.7835 174 3.75V5.5C174 5.77614 173.776 6 173.5 6C173.224 6 173 5.77614 173 5.5V3.75C173 3.33579 172.664 3 172.25 3H170.5C170.224 3 170 2.77614 170 2.5ZM162.5 10C162.776 10 163 10.2239 163 10.5V12.25C163 12.6642 163.336 13 163.75 13H165.5C165.776 13 166 13.2239 166 13.5C166 13.7761 165.776 14 165.5 14H163.75C162.784 14 162 13.2165 162 12.25V10.5C162 10.2239 162.224 10 162.5 10ZM173.5 10C173.776 10 174 10.2239 174 10.5V12.25C174 13.2165 173.216 14 172.25 14H170.5C170.224 14 170 13.7761 170 13.5C170 13.2239 170.224 13 170.5 13H172.25C172.664 13 173 12.6642 173 12.25V10.5C173 10.2239 173.224 10 173.5 10Z" fill="#212121"/>
<path d="M214.235 2.19233C213.236 1.62986 212 2.35243 212 3.49968V12.5C212 13.6472 213.235 14.3698 214.235 13.8073L222.236 9.30735C223.255 8.73391 223.255 7.26609 222.236 6.69262L214.235 2.19233Z" fill="#212121"/>
<path d="M233.765 2.19233C234.764 1.62986 236 2.35243 236 3.49968V12.5C236 13.6472 234.765 14.3698 233.765 13.8073L225.764 9.30735C224.745 8.73391 224.745 7.26609 225.764 6.69262L233.765 2.19233Z" fill="#212121"/>
<path d="M254 3.00176C254 2.19 253.084 1.71648 252.422 2.18598L245.421 7.14908C244.861 7.54593 244.858 8.37575 245.415 8.77653L252.416 13.8142C253.077 14.2903 254 13.8175 254 13.0026V3.00176ZM242 2.5C242 2.22386 242.224 2 242.5 2C242.776 2 243 2.22386 243 2.5V13.5C243 13.7761 242.776 14 242.5 14C242.224 14 242 13.7761 242 13.5V2.5Z" fill="#212121"/>
<path d="M258 3.00176C258 2.19 258.916 1.71648 259.578 2.18598L266.579 7.14908C267.139 7.54593 267.142 8.37575 266.585 8.77653L259.584 13.8142C258.923 14.2903 258 13.8175 258 13.0026V3.00176ZM270 2.5C270 2.22386 269.776 2 269.5 2C269.224 2 269 2.22386 269 2.5V13.5C269 13.7761 269.224 14 269.5 14C269.776 14 270 13.7761 270 13.5V2.5Z" fill="#212121"/>
</g>
<defs>
<clipPath id="clip0_48_2238">
<rect width="336" height="16" fill="white"/>
</clipPath>
</defs>
</svg>
