<svg width="48" height="16" viewBox="0 0 48 16" fill="none" xmlns="http://www.w3.org/2000/svg">
<path d="M7 3C4.79086 3 3 4.79086 3 7C3 9.20914 4.79086 11 7 11C7.92417 11 8.77513 10.6866 9.45241 10.1602L12.1455 12.8533C12.3408 13.0486 12.6574 13.0486 12.8526 12.8533C13.0479 12.6581 13.0479 12.3415 12.8526 12.1462L10.1596 9.45323C10.6863 8.77583 11 7.92454 11 7C11 4.79086 9.20914 3 7 3ZM4 7C4 5.34315 5.34315 4 7 4C8.65685 4 10 5.34315 10 7C10 8.65685 8.65685 10 7 10C5.34315 10 4 8.65685 4 7Z" fill="#212121"/>
<path d="M20.0886 4.21569L20.1464 4.14645C20.32 3.97288 20.5894 3.9536 20.7843 4.08859L20.8536 4.14645L24 7.293L27.1464 4.14645C27.3417 3.95118 27.6583 3.95118 27.8536 4.14645C28.0488 4.34171 28.0488 4.65829 27.8536 4.85355L24.707 8L27.8536 11.1464C28.0271 11.32 28.0464 11.5894 27.9114 11.7843L27.8536 11.8536C27.68 12.0271 27.4106 12.0464 27.2157 11.9114L27.1464 11.8536L24 8.707L20.8536 11.8536C20.6583 12.0488 20.3417 12.0488 20.1464 11.8536C19.9512 11.6583 19.9512 11.3417 20.1464 11.1464L23.293 8L20.1464 4.85355C19.9729 4.67999 19.9536 4.41056 20.0886 4.21569L20.1464 4.14645L20.0886 4.21569Z" fill="#212121"/>
<path d="M35.5 8C35.5 7.72386 35.7239 7.5 36 7.5H42.7929L40.1464 4.85355C39.9512 4.65829 39.9512 4.34171 40.1464 4.14645C40.3417 3.95118 40.6583 3.95118 40.8536 4.14645L44.3536 7.64645C44.5488 7.84171 44.5488 8.15829 44.3536 8.35355L40.8536 11.8536C40.6583 12.0488 40.3417 12.0488 40.1464 11.8536C39.9512 11.6583 39.9512 11.3417 40.1464 11.1464L42.7929 8.5H36C35.7239 8.5 35.5 8.27614 35.5 8Z" fill="#212121"/>
</svg>
