<svg width="20" height="16" viewBox="0 0 20 16" fill="none" xmlns="http://www.w3.org/2000/svg">
<path d="M13.4309 7.09763C13.5611 6.96746 13.7722 6.96746 13.9023 7.09763L16 9.19526L18.0976 7.09763C18.2278 6.96746 18.4388 6.96746 18.569 7.09763C18.6992 7.22781 18.6992 7.43886 18.569 7.56904L16.2357 9.90237C16.1055 10.0325 15.8945 10.0325 15.7643 9.90237L13.4309 7.56904C13.3008 7.43886 13.3008 7.22781 13.4309 7.09763Z" fill="#212121"/>
<path d="M5 3C2.79086 3 1 4.79086 1 7C1 9.20914 2.79086 11 5 11C5.92417 11 6.77513 10.6866 7.45241 10.1602L10.1455 12.8533C10.3408 13.0486 10.6574 13.0486 10.8526 12.8533C11.0479 12.6581 11.0479 12.3415 10.8526 12.1462L8.15961 9.45323C8.68633 8.77583 9 7.92454 9 7C9 4.79086 7.20914 3 5 3ZM2 7C2 5.34315 3.34315 4 5 4C6.65685 4 8 5.34315 8 7C8 8.65685 6.65685 10 5 10C3.34315 10 2 8.65685 2 7Z" fill="#212121"/>
</svg>
